<?xml version="1.0" encoding="UTF-8" standalone="no"?>
<!-- Created with Inkscape (http://www.inkscape.org/) -->

<svg
   width="198.4375mm"
   height="198.4375mm"
   viewBox="0 0 198.4375 198.43751"
   version="1.1"
   id="svg1"
   inkscape:version="1.4.2 (ebf0e940d0, 2025-05-08)"
   sodipodi:docname="Berlin.svg"
   xml:space="preserve"
   xmlns:inkscape="http://www.inkscape.org/namespaces/inkscape"
   xmlns:sodipodi="http://sodipodi.sourceforge.net/DTD/sodipodi-0.dtd"
   xmlns="http://www.w3.org/2000/svg"
   xmlns:svg="http://www.w3.org/2000/svg"><sodipodi:namedview
     id="namedview1"
     pagecolor="#ffffff"
     bordercolor="#000000"
     borderopacity="0.25"
     inkscape:showpageshadow="2"
     inkscape:pageopacity="0.0"
     inkscape:pagecheckerboard="0"
     inkscape:deskcolor="#d1d1d1"
     inkscape:document-units="mm"
     inkscape:zoom="0.5"
     inkscape:cx="229"
     inkscape:cy="156"
     inkscape:window-width="1920"
     inkscape:window-height="996"
     inkscape:window-x="0"
     inkscape:window-y="0"
     inkscape:window-maximized="1"
     inkscape:current-layer="layer1" /><defs
     id="defs1"><inkscape:path-effect
       effect="fillet_chamfer"
       id="path-effect57"
       is_visible="true"
       lpeversion="1"
       nodesatellites_param="F,0,0,1,0,0,0,1 @ F,0,0,1,0,0,0,1 @ F,0,0,1,0,0,0,1"
       radius="0"
       unit="px"
       method="auto"
       mode="F"
       chamfer_steps="1"
       flexible="false"
       use_knot_distance="true"
       apply_no_radius="true"
       apply_with_radius="true"
       only_selected="false"
       hide_knots="false" /></defs><g
     inkscape:label="Ebene 1"
     inkscape:groupmode="layer"
     id="layer1"
     transform="translate(-24.630044,-8.7045374)"><g
       id="g1"><rect
         style="fill:#ffffff;fill-opacity:1;stroke:none;stroke-width:0.160101"
         id="rect41"
         width="198.2774"
         height="198.2774"
         x="24.710094"
         y="8.7845879" /><path
         id="path1"
         style="fill:#cccccc;fill-opacity:1;stroke:none;stroke-width:0.271649"
         d="m 154.79086,16.999691 -4.6e-4,4.68e-4 c -1.89893,-0.0035 -4.57902,0.760444 -7.10315,3.875848 -4.20991,-1.487 -9.25844,-1.225877 -16.52113,-0.805772 l -9.17233,-1.976528 -8.53501,0.05756 -7.55235,1.02757 -7.680115,2.869335 -6.478463,4.972203 -3.874444,5.06345 -2.22219,3.797236 -1.05003,3.986747 -1.580662,-0.09125 -1.167948,1.078106 -0.645741,2.324666 0.567129,2.011623 1.24656,0.940535 0.760852,0.24847 0.131955,1.012128 c -1.859871,3.077007 -3.298995,7.01816 -2.688247,12.87972 l 0.86052,4.96378 2.090235,4.743387 0.262508,3.648436 -0.708911,0.539052 -0.22601,1.336403 0.290583,1.337806 0.922287,1.26481 -0.01077,0.567129 0.713123,0.533438 0.972822,2.448199 2.0032,3.592284 c 0,0 1.962312,2.878901 4.845864,4.62968 1.608785,0.976784 4.702743,2.613775 5.919758,2.995675 l -9.071254,1.589084 -9.841931,3.34241 -4.829017,3.714411 -2.135156,3.43506 0.277949,16.43551 0.186703,-0.3706 0.437513,13.6518 -0.437513,0.5545 -0.09265,16.71344 1.949856,1.11461 5.570215,0.64995 8.821381,1.11321 4.829016,0.18669 4.085018,0.46326 1.299905,-0.64995 12.9064,0.0936 0.18623,0.3706 1.57786,0.372 0.008,3.56 -0.96955,0.0412 0.0323,-2.31343 -0.69627,-0.0108 0.036,7.19862 0.68925,-0.0188 -0.0351,-1.99806 0.93352,-0.14271 0.5573,32.6843 -0.0244,2.98164 2.02285,1.13145 3.75934,0.34393 6.01521,-0.0164 4.10607,-0.54186 1.94986,-1.2999 -0.1853,-22.56303 0.0857,-13.04817 0.74961,-0.0449 0.1067,2.34151 0.97984,-0.0215 -0.0337,-7.1986 -0.96019,-0.0351 -0.11651,2.0776 -0.81279,0.0323 0.0926,-4.34472 9.75068,-0.1853 16.99141,-1.6719 9.56399,-1.20726 4.92166,-0.7426 -0.1853,-1.39256 v -16.8075 l -0.372,-0.83525 -0.0913,-11.42119 0.27795,-0.27795 v -2.97181 l -0.1853,-11.14184 -0.83666,-6.221572 -3.5277,-2.692454 -7.79943,-3.529113 -12.76321,-2.458027 c 8.86363,-5.606334 13.71386,-13.032905 15.38268,-18.71525 1.96456,-6.689371 1.34667,-11.431273 0.598,-17.164068 -0.61547,-4.71299 -1.24603,-6.947284 -2.5619,-10.302372 l 2.30642,-1.103374 -0.15864,-0.80858 -2.49873,1.130046 -1.12022,-1.916165 c 0.62164,-6.594951 -0.5127,-11.592199 -5.19541,-15.963833 4.00473,-4.287365 2.49444,-7.987641 1.49504,-8.553257 -0.37479,-0.212103 -1.23302,-0.49065 -2.3724,-0.492728 z m -38.03318,1.825387 c 4.43317,0.0049 8.8317,0.650959 12.84743,1.791229 -6.83985,1.344678 -13.2582,3.927724 -22.69498,10.2757 C 94.507428,29.549326 87.783639,32.690952 85.390115,39.992739 89.853902,24.558651 103.45813,18.81004 116.75768,18.825078 Z m 38.00745,0.74541 c -0.18065,0.261489 -0.33315,0.460058 -0.46324,0.72716 -0.22493,-0.185455 -0.41662,-0.381684 -0.66961,-0.617665 0.3494,-0.04235 0.78345,-0.06715 1.13285,-0.109495 z m 0.67522,0.28216 c 0.44678,0.450614 0.46503,1.557349 0.1488,2.891796 -0.17929,-0.80614 -0.4146,-1.601352 -0.85771,-2.064967 0.16869,-0.252838 0.53287,-0.628588 0.70891,-0.826829 z m -15.00505,0.572744 c 2.55046,0.103308 4.86351,0.412789 6.87013,1.031782 -1.81761,2.865832 -1.78726,5.790721 -0.44361,7.207027 1.34369,1.416307 5.02521,1.196486 8.28654,-1.954067 3.67297,3.200797 5.62873,8.444868 5.12382,13.952211 l -0.78752,-0.919479 c 0.25996,-2.927117 0.15755,-5.701255 -1.60594,-7.418999 -1.97393,-1.92266 -4.73178,-2.151675 -9.83631,-1.729462 l -3.49402,-2.932505 -5.94222,-4.037284 -6.46442,-2.991464 c 2.9551,-0.208246 5.74312,-0.311089 8.29355,-0.20776 z m -9.7184,0.666798 5.81308,2.509966 3.49402,1.841765 2.98584,2.001796 3.84356,3.049019 -0.85771,0.412712 c -4.52673,-1.816553 -9.87118,-2.757149 -16.26284,-2.922678 -6.39165,-0.165543 -14.19826,0.740916 -20.36048,2.223594 l 2.85811,-1.904935 5.62215,-3.018136 5.11399,-2.001796 4.57493,-1.492223 z m 17.75647,2.446796 c 0.0546,0.05129 0.32032,0.490146 0.40429,0.567128 0.0636,0.681605 0.2108,1.235489 0.60784,2.048121 -0.12713,0.0953 -0.34452,0.243018 -0.47167,0.338313 -0.57307,-0.894842 -0.69736,-1.923956 -0.54046,-2.953562 z m 1.42906,2.984444 c 0.17059,0.186623 0.42856,0.409946 0.66679,0.572745 -0.37851,-0.04632 -0.74122,-0.109381 -1.1118,-0.223202 0.16815,-0.120422 0.29669,-0.233076 0.44501,-0.349543 z m -22.09276,2.361166 c 5.96481,0.0087 11.63125,0.794083 16.76118,2.417315 -5.36806,1.763925 -11.10356,4.285067 -16.37795,7.288448 -6.34294,-3.758011 -11.76543,-5.927983 -18.93424,-7.462517 6.32292,-1.484003 12.5862,-2.251999 18.55101,-2.243246 z m 23.34212,2.216575 c 2.27742,-0.03241 4.55408,0.364266 6.03206,1.461339 1.97065,1.462769 1.9637,4.172515 1.69156,6.610419 -2.17297,-2.621837 -5.12097,-4.764819 -8.33286,-6.446176 l -1.63962,-1.459936 c 0.72981,-0.09616 1.48971,-0.154834 2.24886,-0.165646 z m -50.06596,0.154416 c 1.203,-0.0017 2.47074,0.07344 3.80285,0.231624 -10.477879,3.401736 -17.558537,10.779659 -17.558537,10.779659 0,0 -0.595187,-1.64299 -1.41361,-2.064967 1.524602,-5.173991 6.748314,-8.934594 15.169297,-8.946316 z m 6.01521,0.272334 c 5.65931,0.746342 13.16115,3.143715 19.58279,7.225277 -2.3082,-0.06354 -4.68036,-0.127051 -7.02032,0 -0.22248,-0.868217 -1.2561,-2.068879 -2.79494,-1.96951 -1.53883,0.09937 -2.6309,1.587736 -2.5619,2.699478 -5.59048,0.476461 -12.5257,1.875321 -19.926722,4.765846 3.573431,-4.716839 8.353552,-9.528924 12.721092,-12.721091 z m 38.99713,0.234432 3.25116,1.196024 c 2.91419,2.760818 6.37433,7.121371 8.19389,10.376773 l -0.63872,1.197428 c -3.63795,-1.965871 -12.72828,-5.008836 -26.8965,-5.87203 5.5356,-3.280176 12.1942,-5.819154 16.09017,-6.898195 z M 105.4151,31.99117 c -3.22024,2.510518 -7.744643,6.703237 -11.981303,12.326629 l -5.870625,-1.393958 c 2.74387,-2.501658 5.529091,-4.711078 8.463411,-6.54725 2.934322,-1.836172 6.050497,-3.378536 9.388517,-4.385421 z m 46.23503,2.188499 c 3.35652,1.911767 5.46275,3.96214 7.04981,5.87624 -0.19614,0.881753 -0.4822,1.765068 -0.82543,2.580156 -1.56665,-2.8956 -3.55863,-5.313433 -6.22438,-8.456396 z M 128.2294,39.58143 c 5.4738,3.142964 10.18916,7.422375 14.80711,11.324328 l -14.86046,5.261382 c -1.03636,-1.780427 -2.75795,-3.261987 -5.05221,-3.370486 -2.29429,-0.108496 -3.99555,1.068509 -5.41861,2.830029 l -7.40075,-3.642819 c 5.67887,-4.642726 11.42018,-8.776156 17.92492,-12.402434 z m 1.97934,0.06176 c 7.49457,0.0373 18.67658,1.656316 26.39676,5.717613 l -0.44501,0.762255 -12.07114,4.128529 C 139.65963,46.310272 135.1518,42.909045 130.20874,39.64319 Z m -3.87866,0.181089 c -4.68678,2.635379 -11.6196,7.651568 -16.93526,11.814247 L 94.919001,44.922829 c 6.472389,-2.388306 13.214289,-3.833265 19.417139,-4.469649 0.20021,0.754576 1.4503,1.889595 2.86934,1.751923 1.41907,-0.137671 2.4014,-1.266873 2.38643,-2.290975 2.18618,-0.07487 4.55202,-0.01495 6.73817,-0.08984 z m 32.84153,0.965803 1.02898,1.370094 -0.49414,2.827221 h -0.38183 l -0.80858,-1.794037 z m 1.47818,2.290976 0.65136,1.212869 -0.80858,0.449212 z m -73.715513,0.651356 5.525294,1.437475 -4.222582,2.740187 -0.898423,-0.404291 -0.988263,-2.380818 z m 71.067983,0.293391 0.94053,1.391149 -0.85349,0.157224 -0.53906,-0.704699 z m 3.72564,1.189005 2.06637,7.726428 -3.75091,-6.872928 z m -75.797329,0.383233 0.428154,1.28727 -1.048626,-0.794542 z m 71.192909,0.124936 0.26532,0.233029 -0.44499,0.112302 z m -63.570361,0.01825 14.516541,7.305292 -2.73177,2.47768 -14.579705,-6.193496 2.128136,-3.272221 z m -8.829803,0.920882 2.317648,1.52451 0.255021,0.635914 -2.399067,2.302206 -0.460441,-4.176257 z m 6.924868,0 -1.652254,2.319052 -0.955977,-0.603627 z m 67.155626,0.304622 0.53345,0.45623 c -1.50646,4.338812 -3.71132,8.980073 -6.2342,13.731816 l -4.51458,-5.877644 6.76062,-6.738164 z m 1.04442,0.680835 0.84649,1.026166 c 1.0842,1.751923 2.25822,4.761635 2.98303,7.277217 l -1.00651,4.368576 -8.80453,0.662587 c 2.61103,-4.836504 4.65503,-9.262636 5.98152,-13.334546 z m -75.878745,0.801561 c 0.104856,1.123028 0.209727,2.246053 0.314448,3.369082 -1.267541,2.729027 -2.303312,5.776271 -2.637711,7.096128 -0.418149,-3.399261 0.572269,-7.555509 2.323263,-10.46521 z m 4.438765,0.564321 1.396765,0.729968 -0.539053,0.892806 z m -0.732776,0.367792 1.302712,2.021448 c -0.890927,1.733204 -2.0514,3.825782 -2.582963,5.873433 -0.568995,-1.482396 -1.048152,-3.234319 -1.415014,-5.031162 z m 64.259626,0.05615 -3.14447,1.931606 -2.58296,1.302712 -0.80858,-0.741197 3.16693,-1.145488 z m 1.39255,0.247066 -3.25678,3.189397 -2.06636,1.729462 -1.23534,-1.280251 2.65035,-1.504856 z m -62.77161,0.539053 14.03223,5.862203 -4.06536,3.829523 h -2.335905 c -2.932389,-2.691567 -5.73037,-5.405459 -8.325838,-8.568698 z m -1.106182,1.864225 c 2.410775,2.687777 4.933843,5.398019 7.636581,7.861191 l -9.882636,-0.583974 -0.314448,-1.100567 c 0.763659,-2.39579 1.549779,-4.499596 2.560503,-6.17665 z m 54.983422,0.04492 0.94334,1.078106 c -5.27947,2.957125 -10.74228,5.555263 -16.17159,8.220559 l -1.07811,-0.08984 c 0.37895,-1.014177 0.46102,-2.312824 0.41272,-3.18659 5.26732,-2.081941 10.60152,-3.996085 15.89364,-6.022235 z m -59.969664,0.898421 c 0.314461,1.729463 0.898424,3.548766 1.527318,5.076084 l -0.359369,1.078106 h -3.414003 c 0.583963,-2.133752 1.392561,-4.379807 2.246054,-6.15419 z m 24.336004,0.619069 8.09984,3.939019 0.0646,2.128136 -10.64209,-3.969902 z m 55.46632,0.05475 0.76366,6.064348 -0.80857,-3.930596 z m -18.20707,0.136167 1.36587,1.556796 c -0.29645,0.243533 -0.75077,0.661908 -1.04722,0.905441 -0.59823,-0.460599 -1.54853,-0.351798 -2.06497,0.110899 -0.51643,0.462754 -0.54622,1.413994 -0.22366,1.906339 0,0 -3.74823,2.963389 -4.09765,2.963389 h -8.57572 z m 1.81087,2.191307 c 1.42939,1.694086 2.85918,3.389016 4.28857,5.083102 -3.54698,0.01059 -7.09371,0.02037 -10.64069,0.03089 0.97411,-0.762336 1.94717,-1.524428 2.92128,-2.286764 0.55058,0.280592 1.4597,0.337546 2.01723,-0.09546 0.55748,-0.433003 0.6933,-1.376337 0.41271,-1.809478 0.28588,-0.307056 0.71502,-0.615228 1.0009,-0.922286 z m -42.18231,0.414116 11.30749,4.096242 -0.82543,0.477287 -14.26245,-1.048627 z m 58.42129,1.480992 0.35937,2.111292 -0.71874,0.04492 z m -81.241206,2.088831 2.606827,0.202145 -0.225074,0.606435 -2.403278,-0.539053 z m 3.864618,0.247067 0.336908,0.87596 -1.078106,-0.224604 0.08984,-0.583975 z m 0.875961,0 5.210847,0.539052 -0.449211,1.033186 -4.312425,-0.404291 z m 7.142454,0.539052 3.593688,0.269527 0.80858,0.583974 -0.98826,0.943343 -2.919876,-0.494132 z m -12.532985,0.04492 2.672805,0.741197 -0.494132,3.211859 z m -0.449211,0.02246 0.583975,1.549778 0.954573,1.751922 1.123027,1.549779 -0.213375,3.481384 -0.909652,-2.122522 -0.977034,-2.706496 z m 19.069009,0.179685 12.84743,0.651356 -3.52631,1.437475 -8.19809,-0.449211 -1.5947,-1.100567 z m 64.02659,0.0028 c 0.65644,6.977493 -0.75267,13.128193 -5.94081,20.232741 l 0.445,-2.60402 0.79454,0.126341 0.50817,-0.857712 -1.39817,-1.608737 c 0,0 -0.1058,-1.363107 -0.22179,-2.10708 0.77335,-0.172225 1.57958,-1.130588 1.58768,-2.128136 0.008,-0.997552 -0.75668,-2.227686 -1.73087,-2.525408 2.66281,-3.426478 3.94416,-5.733993 4.65354,-8.433935 z m -2.77247,0.268123 c -1.61275,1.804962 -3.49167,3.539611 -6.09804,4.909034 -0.70232,-1.240843 -1.57933,-2.735003 -2.31343,-4.166432 z m 0.76226,0.08844 c -0.64745,2.266773 -2.31081,5.042564 -4.86412,8.024029 l -1.30833,-2.698073 c 3.04234,-1.870611 4.8136,-3.645928 6.17245,-5.325956 z m -77.064951,0.42675 0.157224,0.04492 1.707001,0.247066 4.08782,7.456901 -6.670782,-4.267504 z m 48.110501,0.224606 4.82902,0.06738 -0.80859,0.718737 -5.68252,0.202145 -2.08883,-0.763658 0.87597,-0.134764 z m 12.17361,0 -6.51356,0.44921 0.47168,-0.269526 z m -46.178885,0.06738 0.583975,0.314447 -0.898435,0.04492 z m -11.3875,0.06738 3.638608,0.314447 1.257791,1.482396 1.796844,-0.988264 2.605419,0.179684 -4.941316,6.693243 z m 63.601255,0.08984 c -0.88025,1.488978 -4.11025,6.135916 -5.98433,8.009992 -4.25639,-1.937609 -10.03847,-5.177156 -10.03847,-5.177156 l 2.31906,-1.715424 c 0,0 10.04172,-0.795842 13.70374,-1.117412 z m 0.92088,0.110899 2.31343,4.249254 c -2.53353,1.223006 -5.26774,2.079058 -7.88926,3.151495 1.98451,-2.349732 3.86829,-4.654233 5.29086,-7.383904 z m -35.54803,0.04633 0.49413,0.628896 -1.9316,-0.02293 z m 10.26447,0.449211 0.56292,0.157224 -0.97141,0.136167 z m -28.861805,0.318659 h 2.201145 l 1.34763,0.916671 1.43747,1.347633 -10.421695,4.851478 1.909147,-3.054635 z m 3.915165,0.265315 5.56319,0.290584 -3.39435,1.416418 z m 33.93086,0.112303 -1.41501,1.033185 -1.86423,-0.875961 z m -7.29968,0.179684 3.05464,1.459936 -4.13274,-1.415015 c 0.13474,0.02255 1.0781,-0.04492 1.0781,-0.04492 z m -10.82597,0.134764 1.23532,0.965804 0.72154,0.224604 v 0.449211 c -2.94247,1.53907 -5.99325,2.847247 -9.02352,4.200123 l -2.54646,-1.549778 -2.2236,-1.688752 c 2.25213,-0.744334 4.44987,-1.625425 6.64832,-2.51137 l 2.91988,-0.06738 z m 8.06333,0.08984 5.92959,2.178672 -3.66108,2.493122 -3.59369,2.246054 -0.13616,-5.929584 0.72014,-0.359369 z m -41.698011,2.212363 1.100566,1.123028 1.403785,1.078106 2.279745,1.280251 2.290976,1.033186 -0.606434,0.932112 -0.38183,0.112303 -1.516087,0.909651 -1.605929,1.033186 -0.168454,-0.179684 -0.314447,-0.303218 -0.527824,-0.336908 -1.224099,-1.538547 -1.066877,-1.673311 0.282161,-3.095344 z m 48.705701,0.258296 3.47998,1.370094 2.89741,1.482396 3.1894,1.774383 -1.77438,0.449211 -6.10928,1.415015 -6.13173,1.010724 -3.8632,0.336908 -0.0215,-2.49312 z m -12.95973,0.202146 v 6.917848 l -1.57224,0.943343 -6.58095,-4.155201 7.50604,-3.593688 z m -14.82397,0.336908 2.60543,1.796844 1.88668,1.23533 -3.43646,1.68454 -3.25678,1.392555 -4.267515,-0.831041 -4.065353,-1.235329 5.053628,-1.954068 z m 49.86242,0.40429 1.22409,2.524004 c -0.73872,0.440513 -1.16012,1.198693 -1.35886,2.210959 l -1.71823,1.610141 -7.0863,-2.88618 z m -44.22482,3.346621 2.87495,1.931607 3.18939,1.956875 -4.55949,-0.182492 -4.82902,-0.471671 -2.7851,-0.539053 z m -26.851588,0.213375 1.358863,2.011623 -0.516593,0.15582 -0.471671,0.247066 -0.157692,0.112303 z m 9.264975,0.280757 2.852486,1.030378 2.425742,0.700488 2.785115,0.582571 -0.0216,0.332696 -1.34904,0.471672 -1.886695,0.722948 -1.751918,0.609243 -1.819305,-2.271322 -1.527317,-2.156213 z m 50.356553,0.314447 0.42675,0.247067 -2.94234,3.032174 -4.78409,4.761636 -2.91988,2.425739 -8.73715,-4.042899 c 0,0 0.0674,-2.830027 0.0674,-2.964792 l 3.66107,-0.314447 4.82902,-0.741199 6.10926,-1.190408 z m -51.254975,0.02247 1.531528,2.515581 1.455721,1.841765 -2.111287,0.875961 -2.605424,0.602224 -1.280251,-1.27604 0.93492,-1.976528 1.208658,-2.156213 z m 52.317635,0.585378 6.48127,3.221685 c -4.15077,3.404966 -8.67481,5.667387 -14.80711,7.885055 l -1.96109,-1.089336 2.75844,-2.362569 2.89039,-2.699478 c 0,0 4.57454,-4.637718 4.6381,-4.955357 z m 10.3866,0.762254 c 0.53273,0.940014 1.52663,1.602718 2.57313,1.429053 0,0 0.15777,1.207368 0.22133,1.810882 -0.47647,-0.09529 -4.13414,-2.070583 -4.13414,-2.070583 z m -65.197356,0.157224 -1.25779,2.358357 -0.741198,-0.958784 z m 13.364036,0.763659 3.61614,0.788927 4.1552,0.390252 6.04189,0.280756 -3.36908,1.976529 -4.02044,2.178672 -3.93059,1.841766 -2.69527,1.145487 -2.7851,-2.246054 -2.290985,-2.335897 -1.145491,-1.459936 z m 16.81172,0.595205 0.003,0.364983 -0.53063,-0.02808 z m -0.41974,0.860519 0.37481,0.02105 -0.0215,0.252681 z m -1.16373,0.19653 1.50485,0.863328 0.14599,9.940195 -1.561,0.02247 c -0.0388,-1.527068 -1.17014,-2.684985 -2.70229,-2.794935 -1.53213,-0.109936 -2.91523,1.246827 -3.11359,2.479084 -2.04495,-0.173014 -3.52751,-0.42318 -5.97591,-0.988264 l -1.53855,-1.092144 -1.20164,-0.918076 3.1894,-1.302711 3.96429,-1.942837 3.0434,-1.796844 z m 33.50832,0.110899 c 2.91162,1.421712 4.65617,2.102274 6.02224,2.661575 0,0 0.26051,3.239195 -2.02145,5.704979 -2.80328,3.029207 -5.39054,2.740187 -9.77034,2.201133 -4.54677,-0.559602 -8.89438,-2.605424 -8.89438,-2.605424 6.53585,-2.536485 9.36648,-3.849956 14.66393,-7.962263 z m -63.821645,0.774889 -0.548879,1.886686 -1.548374,0.168454 1.123027,-0.685047 0.179217,-0.192318 z m 7.965068,0.314448 1.594702,1.909146 1.52732,1.437475 1.482395,1.392554 1.52732,1.280251 -1.0781,0.449211 -3.032185,-1.347633 -2.830033,-1.504856 -2.066365,-1.100567 -1.437475,-1.033186 2.133752,-0.628895 z m -7.14245,0.08984 1.033185,1.010724 -1.625582,0.291988 z m 1.886686,1.796844 2.785107,1.886685 2.29098,1.145488 4.121514,2.133752 -3.515086,1.123027 -3.133243,0.471672 -3.043404,-0.179685 -1.864225,-0.80858 -0.696278,-1.010724 -0.06738,-2.313436 0.291987,-1.819304 z m 33.761011,0.31164 8.0858,3.842157 -2.89039,2.19271 -5.19541,0.697681 z m -37.445009,0.317255 h 4.68e-4 l -0.157224,1.909146 0.201678,1.796843 -1.280252,-1.954066 -0.628895,-1.594699 c 0.08991,0.02255 1.864225,-0.157224 1.864225,-0.157224 z m 46.420809,3.684933 1.39677,0.635914 -3.11219,0.857713 z m -30.40597,0.537649 1.23534,0.965804 -2.1113,-0.718738 z m 33.13774,0.541861 1.93721,0.857712 c 4.42546,1.507892 9.83032,2.989152 14.88994,1.931607 -2.11128,1.631626 -3.10397,2.30578 -5.6039,3.786005 l -13.96064,-0.888595 -8.97018,0.158628 v -0.95317 l 4.10467,-2.095849 1.78982,-1.461339 z m -35.13673,0.154416 3.68353,1.167948 0.53905,0.112304 2.76265,1.841764 1.63962,0.898422 2.76265,1.347633 1.90915,0.898421 -0.0903,0.202145 -11.97147,1.123028 -0.24659,0.247065 -0.29199,-0.134763 -2.919875,0.606435 -1.954071,-0.808579 -3.503845,-1.796844 -2.49312,-1.998989 -2.246055,-2.04391 -0.381829,-0.640125 1.954067,0.718738 3.25678,0.145993 3.447695,-0.561514 z m 26.90914,1.656465 0.0323,0.254085 c -0.34939,0.444697 -3.36768,2.160424 -3.36768,2.160424 l 0.0627,-1.778594 z m -20.5542,0.117919 2.74018,0.471671 2.35274,0.279353 c 0.0109,1.429577 1.18679,2.627995 2.64052,2.7823 1.4537,0.154296 2.91359,-0.942735 3.13887,-2.455218 l 1.72946,-0.02247 0.0216,2.987254 -2.06637,0.134763 v 0.179684 l -0.42675,0.04492 -0.0898,-0.157224 -1.88668,0.08984 -2.11129,-0.920883 -1.77438,-0.898421 -2.35837,-1.23533 -1.28024,-0.80858 z m 65.18425,34.411423 0.008,10.97666 -1.68221,-0.88672 0.0351,-9.0399 z m -99.058039,2.02707 1.550246,1.19977 0.244726,9.72869 -1.442621,0.91714 z" /></g></g></svg>
