<?xml version="1.0" encoding="UTF-8" standalone="no"?>
<!-- Created with Inkscape (http://www.inkscape.org/) -->

<svg
   width="198.4375mm"
   height="198.4375mm"
   viewBox="0 0 198.4375 198.43751"
   version="1.1"
   id="svg1"
   inkscape:version="1.4.2 (ebf0e940d0, 2025-05-08)"
   sodipodi:docname="Berlin.svg"
   xml:space="preserve"
   xmlns:inkscape="http://www.inkscape.org/namespaces/inkscape"
   xmlns:sodipodi="http://sodipodi.sourceforge.net/DTD/sodipodi-0.dtd"
   xmlns="http://www.w3.org/2000/svg"
   xmlns:svg="http://www.w3.org/2000/svg"><sodipodi:namedview
     id="namedview1"
     pagecolor="#ffffff"
     bordercolor="#000000"
     borderopacity="0.25"
     inkscape:showpageshadow="2"
     inkscape:pageopacity="0.0"
     inkscape:pagecheckerboard="0"
     inkscape:deskcolor="#d1d1d1"
     inkscape:document-units="mm"
     inkscape:zoom="0.5"
     inkscape:cx="229"
     inkscape:cy="156"
     inkscape:window-width="1920"
     inkscape:window-height="996"
     inkscape:window-x="0"
     inkscape:window-y="0"
     inkscape:window-maximized="1"
     inkscape:current-layer="layer1" /><defs
     id="defs1"><inkscape:path-effect
       effect="fillet_chamfer"
       id="path-effect57"
       is_visible="true"
       lpeversion="1"
       nodesatellites_param="F,0,0,1,0,0,0,1 @ F,0,0,1,0,0,0,1 @ F,0,0,1,0,0,0,1"
       radius="0"
       unit="px"
       method="auto"
       mode="F"
       chamfer_steps="1"
       flexible="false"
       use_knot_distance="true"
       apply_no_radius="true"
       apply_with_radius="true"
       only_selected="false"
       hide_knots="false" /></defs><g
     inkscape:label="Ebene 1"
     inkscape:groupmode="layer"
     id="layer1"
     transform="translate(-24.630044,-8.7045374)"><g
       id="g1"><rect
         style="fill:none;fill-opacity:1;stroke:none;stroke-width:0.160101"
         id="rect41"
         width="198.2774"
         height="198.2774"
         x="24.710093"
         y="8.784585" /><path
         id="path1"
         style="fill:#cccccc;fill-opacity:1;stroke:none;stroke-width:0.287436"
         d="m 156.59762,11.577016 -4.9e-4,4.95e-4 c -2.00928,-0.0037 -4.84513,0.804637 -7.51595,4.101094 -4.45457,-1.573417 -9.7965,-1.297119 -17.48126,-0.8526 l -9.70538,-2.091395 -9.03103,0.06091 -7.99125,1.087287 -8.126449,3.036088 -6.854962,5.261164 -4.099609,5.357715 -2.351333,4.017913 -1.111053,4.218438 -1.672522,-0.09655 -1.235824,1.140761 -0.683269,2.459764 0.600088,2.12853 1.319005,0.995195 0.805069,0.26291 0.139623,1.070948 c -1.967958,3.255827 -3.490717,7.426022 -2.844475,13.628229 l 0.910529,5.252251 2.21171,5.019051 0.277764,3.860466 -0.75011,0.57038 -0.239145,1.414068 0.307471,1.415553 0.975886,1.338315 -0.01139,0.600088 0.754566,0.564439 1.029357,2.590477 2.119617,3.801051 c 0,0 2.076352,3.046209 5.127484,4.898735 1.70228,1.03355 4.976044,2.765675 6.263783,3.16977 l -9.598431,1.681434 -10.413897,3.536652 -5.109657,3.930278 -2.259242,3.63469 0.294103,17.39066 0.197553,-0.39213 0.462939,14.44517 -0.462939,0.58673 -0.09803,17.68474 2.063173,1.17939 5.89393,0.68772 9.334039,1.17791 5.109656,0.19754 4.32242,0.49018 1.375457,-0.68772 13.656445,0.0991 0.19706,0.39215 1.66956,0.39362 0.008,3.76688 -1.02589,0.0436 0.0342,-2.44788 -0.73673,-0.0114 0.0381,7.61697 0.72931,-0.0199 -0.0371,-2.11417 0.98777,-0.15101 0.58969,34.58376 -0.0258,3.15491 2.14041,1.19722 3.97781,0.36391 6.36479,-0.0174 4.34469,-0.57336 2.06318,-1.37544 -0.19607,-23.87429 0.0907,-13.80647 0.79317,-0.0475 0.1129,2.47758 1.03679,-0.0227 -0.0357,-7.61694 -1.016,-0.0371 -0.12327,2.19835 -0.86003,0.0342 0.0979,-4.59722 10.31735,-0.19607 17.97887,-1.76905 10.11981,-1.27742 5.20768,-0.78576 -0.19607,-1.47349 V 133.7252 l -0.39362,-0.88378 -0.0966,-12.08494 0.2941,-0.2941 v -3.14452 l -0.19606,-11.78935 -0.88529,-6.583152 -3.73271,-2.848915 -8.2527,-3.734208 -13.50495,-2.600877 c 9.37874,-5.932148 14.51084,-13.790317 16.27665,-19.802893 2.07874,-7.078126 1.42493,-12.095605 0.63276,-18.161564 -0.65124,-4.986887 -1.31845,-7.351027 -2.71079,-10.901097 l 2.44046,-1.167497 -0.16786,-0.855572 -2.64394,1.19572 -1.18532,-2.027524 c 0.65776,-6.978219 -0.5425,-12.265884 -5.49735,-16.891576 4.23747,-4.536527 2.63941,-8.451846 1.58193,-9.050334 -0.39658,-0.224428 -1.30469,-0.519163 -2.51028,-0.521363 z m -40.24349,1.93147 c 4.6908,0.0052 9.34495,0.688789 13.59406,1.895327 -7.23735,1.422824 -14.0287,4.155984 -24.01391,10.872875 -13.123481,-1.420711 -20.238025,1.903492 -22.77065,9.629624 4.723201,-16.331045 19.11804,-22.413739 33.1905,-22.397826 z m 40.21627,0.78873 c -0.19115,0.276685 -0.35252,0.486794 -0.49016,0.769418 -0.23801,-0.196233 -0.44084,-0.403865 -0.70853,-0.65356 0.3697,-0.04481 0.82898,-0.07105 1.19869,-0.115858 z m 0.71445,0.298557 c 0.47275,0.476802 0.49206,1.647855 0.15745,3.059854 -0.18971,-0.852989 -0.43869,-1.694415 -0.90756,-2.184974 0.1785,-0.267531 0.56385,-0.665118 0.75011,-0.87488 z m -15.87707,0.606029 c 2.69868,0.109313 5.14616,0.436779 7.2694,1.091745 -1.92325,3.032381 -1.89113,6.127251 -0.4694,7.625866 1.42178,1.498616 5.31725,1.26602 8.76811,-2.067629 3.88644,3.386813 5.95585,8.935645 5.4216,14.763049 l -0.83328,-0.972915 c 0.27506,-3.097227 0.1667,-6.032585 -1.69928,-7.850156 -2.08864,-2.034397 -5.00677,-2.27672 -10.40795,-1.829971 l -3.69707,-3.102928 -6.28756,-4.271912 -6.8401,-3.165314 c 3.12683,-0.220348 6.07688,-0.329169 8.77553,-0.219835 z m -10.28318,0.705549 6.1509,2.655835 3.69708,1.948799 3.15936,2.118132 4.06693,3.226212 -0.90755,0.436697 c -4.78981,-1.922121 -10.44485,-2.917381 -17.20797,-3.09253 -6.7631,-0.175163 -15.02339,0.783975 -21.54373,2.352819 l 3.02421,-2.015641 5.94888,-3.193536 5.41119,-2.118131 4.8408,-1.578943 z m 18.78839,2.588993 c 0.0578,0.05427 0.33893,0.518631 0.42778,0.600087 0.0673,0.721216 0.22305,1.30729 0.64316,2.167149 -0.13451,0.100835 -0.36453,0.257141 -0.49907,0.357973 -0.60638,-0.946846 -0.73789,-2.035767 -0.57187,-3.125209 z m 1.51211,3.157886 c 0.1805,0.197469 0.45346,0.433771 0.70554,0.60603 -0.40051,-0.04901 -0.78429,-0.115738 -1.17642,-0.236174 0.17793,-0.12742 0.31394,-0.246621 0.47088,-0.369856 z m -23.3767,2.498386 c 6.31146,0.0092 12.30722,0.840231 17.73527,2.557798 -5.68003,1.866437 -11.74885,4.534095 -17.32976,7.712018 -6.71157,-3.976408 -12.44918,-6.272489 -20.03461,-7.896203 6.69038,-1.570247 13.31766,-2.382875 19.6291,-2.373613 z m 24.69866,2.345392 c 2.40978,-0.03429 4.81874,0.385435 6.38262,1.546265 2.08517,1.547779 2.07782,4.415002 1.78986,6.994586 -2.29925,-2.774206 -5.41857,-5.041728 -8.81712,-6.820798 l -1.73491,-1.544781 c 0.77223,-0.101745 1.57628,-0.163832 2.37955,-0.175272 z m -52.975556,0.16339 c 1.272906,-0.0018 2.614326,0.07771 4.023856,0.245085 -11.086803,3.599429 -18.578956,11.406122 -18.578956,11.406122 0,0 -0.629777,-1.738472 -1.495763,-2.184972 1.613205,-5.47468 7.140495,-9.453832 16.050863,-9.466235 z m 6.364786,0.288161 c 5.98821,0.789716 13.92601,3.326413 20.72085,7.645176 -2.44234,-0.06723 -4.95236,-0.134435 -7.42831,0 -0.2354,-0.918674 -1.3291,-2.189113 -2.95736,-2.083969 -1.62827,0.105145 -2.7838,1.680008 -2.7108,2.85636 -5.91537,0.504151 -13.25363,1.984306 -21.08476,5.042814 3.781103,-4.990959 8.83902,-10.0827 13.46038,-13.460381 z m 41.26346,0.248056 3.4401,1.265532 c 3.08355,2.921263 6.74478,7.535231 8.67009,10.979822 l -0.67584,1.267017 c -3.84938,-2.080119 -13.468,-5.299926 -28.4596,-6.213285 5.8573,-3.470804 12.90287,-6.157336 17.02525,-7.299086 z m -43.04738,0.242115 c -3.40738,2.656418 -8.194722,7.092797 -12.677597,13.042995 l -6.211798,-1.474969 c 2.903331,-2.647042 5.850416,-4.984863 8.955265,-6.927745 3.104851,-1.942882 6.40212,-3.574881 9.93413,-4.640281 z m 48.92199,2.315684 c 3.55159,2.02287 5.78022,4.192401 7.45951,6.21774 -0.20754,0.932996 -0.51021,1.867645 -0.87339,2.730103 -1.6577,-3.063879 -3.76545,-5.622225 -6.58612,-8.947843 z M 128.49253,35.4711 c 5.79192,3.325619 10.78131,7.85373 15.66763,11.982446 l -15.72408,5.567149 c -1.09659,-1.883897 -2.91823,-3.451559 -5.34582,-3.566363 -2.42763,-0.114802 -4.22775,1.130606 -5.73351,2.994496 l -7.83085,-3.854522 c 6.0089,-4.91254 12.08386,-9.286185 18.96663,-13.123206 z m 2.09437,0.06535 c 7.93012,0.03947 19.76197,1.752573 27.93082,6.049893 l -0.47088,0.806555 -12.77266,4.368459 C 140.58703,42.590992 135.81723,38.992101 130.5869,35.53645 Z m -4.10407,0.191612 c -4.95915,2.788536 -12.29487,8.096242 -17.91946,12.500837 L 93.24629,41.122917 c 6.84853,-2.527104 13.98223,-4.056037 20.54557,-4.729405 0.21184,0.798429 1.53458,1.99941 3.03609,1.853737 1.50155,-0.145672 2.54096,-1.340498 2.52512,-2.424116 2.31323,-0.07922 4.81656,-0.01582 7.12976,-0.09506 z m 34.75013,1.021931 1.08878,1.449718 -0.52286,2.991526 h -0.40402 l -0.85557,-1.898299 z m 1.56408,2.424118 0.68922,1.283354 -0.85557,0.475319 z m -77.999509,0.689209 5.846399,1.521014 -4.467979,2.899435 -0.950635,-0.427787 -1.045696,-2.51918 z m 75.198129,0.310442 0.99518,1.471995 -0.90309,0.166362 -0.57039,-0.745653 z m 3.94215,1.258104 2.18646,8.175452 -3.9689,-7.27235 z m -80.202315,0.405505 0.453036,1.36208 -1.109567,-0.840717 z m 75.330305,0.132196 0.28074,0.246572 -0.47085,0.118829 z m -67.26477,0.01932 15.36018,7.72984 -2.89054,2.621672 -15.427003,-6.553433 2.251813,-3.462387 z m -9.34295,0.974399 2.452338,1.613107 0.269843,0.67287 -2.53849,2.435999 -0.4872,-4.41896 z m 7.327309,0 -1.748275,2.453824 -1.011534,-0.638707 z m 71.058391,0.322325 0.56446,0.482743 c -1.59401,4.590964 -3.92701,9.501953 -6.59651,14.529846 l -4.77695,-6.219225 7.15352,-7.129755 z m 1.10512,0.720402 0.89569,1.085802 c 1.1472,1.853736 2.38945,5.038359 3.15639,7.700134 l -1.06501,4.622458 -9.31621,0.701093 c 2.76278,-5.117579 4.92556,-9.800937 6.32914,-14.109487 z m -80.288461,0.848135 c 0.110951,1.188293 0.221916,2.376583 0.332723,3.564877 -1.341204,2.887625 -2.43717,6.111961 -2.791003,7.508522 -0.442449,-3.59681 0.605527,-7.9946 2.45828,-11.073399 z m 4.696726,0.597116 1.477939,0.772391 -0.570381,0.944691 z m -0.775362,0.389167 1.37842,2.138925 c -0.942703,1.83393 -2.170618,4.048118 -2.733073,6.214769 -0.602062,-1.568546 -1.109065,-3.422282 -1.497247,-5.323549 z m 67.994097,0.05942 -3.32722,2.043862 -2.73306,1.37842 -0.85558,-0.784272 3.35098,-1.212059 z m 1.47348,0.261425 -3.44606,3.37475 -2.18644,1.82997 -1.30713,-1.354654 2.80437,-1.592311 z m -66.419606,0.570379 14.847716,6.202888 -4.301613,4.052077 H 96.704216 C 93.60141,54.138626 90.640824,51.267016 87.894519,47.919943 Z m -1.170467,1.972565 c 2.550877,2.843979 5.220575,5.711728 8.080383,8.318048 L 85.082722,56.40435 84.749999,55.239823 c 0.808039,-2.535022 1.639845,-4.761092 2.709308,-6.535608 z m 58.178803,0.04753 0.99816,1.14076 c -5.58629,3.128979 -11.36658,5.878109 -17.11141,8.6983 l -1.14076,-0.09506 c 0.40097,-1.073116 0.48781,-2.447234 0.4367,-3.371779 5.57343,-2.202935 11.21763,-4.228319 16.81731,-6.372219 z m -63.454823,0.950633 c 0.332736,1.829971 0.950637,3.755003 1.616079,5.371082 l -0.380254,1.14076 h -3.612409 c 0.617901,-2.257756 1.473491,-4.634341 2.376584,-6.511842 z m 25.750293,0.655046 8.57056,4.167937 0.0684,2.251812 -11.26057,-4.200613 z m 58.68976,0.05793 0.80804,6.41678 -0.85555,-4.159023 z m -19.26517,0.144081 1.44525,1.64727 c -0.31368,0.257685 -0.7944,0.700375 -1.10808,0.958061 -0.633,-0.487367 -1.63853,-0.372243 -2.18498,0.117344 -0.54644,0.489646 -0.57796,1.496168 -0.23666,2.017126 0,0 -3.96606,3.135608 -4.33578,3.135608 h -9.0741 z m 1.9161,2.318655 c 1.51246,1.792539 3.02535,3.585971 4.53781,5.378509 -3.75312,0.01121 -7.50596,0.02155 -11.25908,0.03269 1.03073,-0.80664 2.06034,-1.61302 3.09105,-2.41966 0.58258,0.296899 1.54453,0.357163 2.13446,-0.101009 0.58988,-0.458166 0.7336,-1.456323 0.4367,-1.914636 0.30249,-0.324901 0.75657,-0.650983 1.05906,-0.975885 z m -44.63374,0.438183 11.96462,4.334297 -0.87339,0.505025 -15.09132,-1.109569 z m 61.81646,1.56706 0.38025,2.23399 -0.76051,0.04754 z m -85.962562,2.210224 2.758323,0.213893 -0.238155,0.641679 -2.542945,-0.570381 z m 4.089211,0.261426 0.356487,0.926866 -1.14076,-0.237656 0.09506,-0.617913 z m 0.926868,0 5.513677,0.57038 -0.475317,1.093229 -4.563044,-0.427786 z m 7.557539,0.57038 3.802538,0.28519 0.855573,0.617911 -1.045696,0.998166 -3.089566,-0.522848 z m -13.261343,0.04753 2.828136,0.784272 -0.522848,3.398517 z m -0.475317,0.02376 0.617913,1.639844 1.010049,1.853736 1.188292,1.639844 -0.225776,3.683706 -0.962516,-2.245873 -1.033816,-2.863785 z m 20.177208,0.190128 13.594066,0.689209 -3.73125,1.521014 -8.67452,-0.475316 -1.687378,-1.164527 z m 67.747516,0.003 c 0.69459,7.382993 -0.79641,13.891143 -6.28606,21.408574 l 0.47086,-2.755353 0.84072,0.133683 0.5377,-0.907559 -1.47943,-1.702229 c 0,0 -0.11195,-1.442325 -0.23468,-2.229533 0.8183,-0.182235 1.67138,-1.196293 1.67995,-2.251814 0.008,-1.055525 -0.80065,-2.357148 -1.83146,-2.672173 2.81756,-3.625609 4.17338,-6.067225 4.92398,-8.924076 z m -2.9336,0.283705 c -1.70647,1.909858 -3.69458,3.745317 -6.45242,5.194325 -0.74314,-1.312956 -1.67111,-2.893949 -2.44788,-4.408567 z m 0.80656,0.09358 c -0.68507,2.398507 -2.44509,5.335614 -5.1468,8.490348 l -1.38436,-2.854872 c 3.21915,-1.979323 5.09335,-3.857813 6.53116,-5.635476 z m -81.543597,0.451551 0.166361,0.04753 1.806204,0.261425 4.325385,7.890261 -7.058457,-4.515511 z m 50.906447,0.237658 5.10967,0.0713 -0.85559,0.760507 -6.01275,0.213892 -2.21023,-0.808038 0.92688,-0.142595 z m 12.88109,0 -6.89209,0.475317 0.49908,-0.28519 z m -48.862583,0.0713 0.617915,0.332721 -0.950645,0.04753 z m -12.049286,0.0713 3.850066,0.332722 1.330889,1.568546 1.901268,-1.045698 2.756834,0.190126 -5.228483,7.082223 z m 67.297459,0.09506 c -0.9314,1.575511 -4.34912,6.492508 -6.33211,8.475496 -4.50376,-2.050214 -10.62186,-5.478028 -10.62186,-5.478028 l 2.45383,-1.815117 c 0,0 10.6253,-0.842093 14.50014,-1.182351 z m 0.9744,0.117344 2.44788,4.496201 c -2.68078,1.294081 -5.57388,2.199883 -8.34776,3.334645 2.09984,-2.486287 4.0931,-4.924715 5.59834,-7.813022 z m -37.61392,0.04903 0.52285,0.665445 -2.04386,-0.02426 z m 10.86099,0.475317 0.59564,0.166361 -1.02786,0.144081 z m -30.539109,0.337178 h 2.329073 l 1.425936,0.969943 1.52101,1.425952 -11.027353,5.133423 2.020098,-3.232156 z m 4.142689,0.280734 5.8865,0.307471 -3.59161,1.498734 z m 35.90276,0.118829 -1.49724,1.093229 -1.97257,-0.926868 z m -7.7239,0.190126 3.23216,1.544781 -4.37291,-1.497248 c 0.14257,0.02386 1.14075,-0.04753 1.14075,-0.04753 z m -11.45512,0.142596 1.30711,1.021932 0.76347,0.237658 v 0.475274 c -3.11347,1.628513 -6.34155,3.012715 -9.54792,4.444215 l -2.69445,-1.639845 -2.35283,-1.786894 c 2.38302,-0.787592 4.70847,-1.719888 7.03469,-2.657319 l 3.08958,-0.0713 z m 8.53193,0.09506 6.27419,2.305286 -3.87384,2.638011 -3.80254,2.376584 -0.14408,-6.274184 0.76199,-0.380254 z m -44.1213,2.340934 1.164526,1.188293 1.485366,1.140761 2.412233,1.354653 2.424117,1.093231 -0.641677,0.986282 -0.40402,0.118829 -1.604196,0.962516 -1.699257,1.09323 -0.178244,-0.190126 -0.332721,-0.32084 -0.558499,-0.356488 -1.295238,-1.62796 -1.128879,-1.770556 0.298559,-3.275231 z m 51.53624,0.273308 3.68223,1.449717 3.06579,1.568546 3.37475,1.877502 -1.87749,0.475317 -6.46433,1.497249 -6.48808,1.069463 -4.0877,0.356487 -0.0227,-2.638008 z m -13.71288,0.213894 v 7.31988 l -1.66362,0.998166 -6.9634,-4.396681 7.94226,-3.802538 z m -15.68547,0.356487 2.75685,1.901268 1.99631,1.307122 -3.63616,1.782437 -3.44606,1.473485 -4.515518,-0.879338 -4.301607,-1.30712 5.347321,-2.06763 z m 52.76019,0.427786 1.29522,2.670687 c -0.78165,0.466114 -1.22753,1.268355 -1.43782,2.33945 l -1.81809,1.703714 -7.49813,-3.05391 z m -46.79496,3.541111 3.04202,2.043862 3.37474,2.0706 -4.82446,-0.193097 -5.10966,-0.499083 -2.94695,-0.570381 z m -28.412076,0.225775 1.437833,2.12853 -0.546614,0.164875 -0.499083,0.261424 -0.166856,0.11883 z m 9.803412,0.297074 3.018259,1.090258 2.566719,0.741198 2.946966,0.616426 -0.0229,0.352031 -1.427436,0.499084 -1.996338,0.764962 -1.853731,0.644649 -1.925035,-2.403321 -1.616077,-2.281521 z m 53.283044,0.33272 0.45155,0.261426 -3.11334,3.20839 -5.06212,5.03836 -3.08957,2.566712 -9.24491,-4.277854 c 0,0 0.0713,-2.994495 0.0713,-3.137092 l 3.87384,-0.332721 5.10965,-0.784274 6.46431,-1.259589 z m -54.233678,0.02377 1.620533,2.661774 1.540321,1.9488 -2.233985,0.926868 -2.756839,0.637222 -1.354654,-1.350198 0.989253,-2.091395 1.2789,-2.281521 z m 55.358088,0.619396 6.85793,3.408915 c -4.392,3.602846 -9.17895,5.996749 -15.66762,8.343297 l -2.07507,-1.152643 2.91875,-2.49987 3.05836,-2.856359 c 0,0 4.84039,-4.907241 4.90765,-5.24334 z m 10.99022,0.806553 c 0.56369,0.994643 1.61536,1.695861 2.72267,1.512103 0,0 0.16694,1.277534 0.23419,1.916122 -0.50416,-0.100825 -4.37439,-2.190915 -4.37439,-2.190915 z m -68.986317,0.166362 -1.330888,2.495413 -0.784273,-1.014504 z m 14.140687,0.808039 3.82629,0.834775 4.39669,0.412932 6.39301,0.297073 -3.56487,2.091395 -4.25409,2.305286 -4.15902,1.948801 -2.85191,1.212057 -2.946956,-2.376584 -2.424122,-2.471649 -1.212061,-1.544779 z m 17.78874,0.629795 0.003,0.386194 -0.56147,-0.02971 z m -0.44414,0.910529 0.3966,0.02227 -0.0227,0.267366 z m -1.23136,0.207951 1.59231,0.9135 0.15448,10.517874 -1.65172,0.02377 c -0.0411,-1.615814 -1.23815,-2.841024 -2.85934,-2.957364 -1.62116,-0.116324 -3.08465,1.319287 -3.29454,2.623158 -2.16378,-0.183069 -3.73251,-0.447774 -6.32319,-1.045698 l -1.62797,-1.155614 -1.27147,-0.971431 3.37475,-1.378418 4.19467,-2.055745 3.22027,-1.901269 z m 35.45567,0.117344 c 3.08083,1.504336 4.92677,2.224448 6.37222,2.816254 0,0 0.27566,3.427441 -2.13892,6.036525 -2.96619,3.205251 -5.70382,2.899434 -10.33815,2.329053 -4.811,-0.592123 -9.41128,-2.75684 -9.41128,-2.75684 6.91568,-2.683893 9.91082,-4.073696 15.51613,-8.424992 z m -67.530656,0.819921 -0.580777,1.996333 -1.638358,0.178244 1.188292,-0.72486 0.189632,-0.203494 z m 8.427961,0.332723 1.687379,2.020096 1.616085,1.521015 1.568541,1.473483 1.61608,1.354654 -1.14076,0.475316 -3.208396,-1.425951 -2.994501,-1.592311 -2.186452,-1.164527 -1.521015,-1.09323 2.257756,-0.665443 z m -7.557536,0.09506 1.09323,1.069462 -1.720054,0.308957 z m 1.996332,1.901267 2.946964,1.99633 2.424122,1.21206 4.36104,2.257755 -3.71937,1.188292 -3.315332,0.499084 -3.220273,-0.190128 -1.972565,-0.855571 -0.736742,-1.069462 -0.0713,-2.447883 0.308957,-1.925033 z m 35.723039,0.329752 8.55571,4.065445 -3.05837,2.32014 -5.49734,0.738226 z m -39.621135,0.335692 h 4.96e-4 l -0.166361,2.020097 0.213399,1.901267 -1.354655,-2.067628 -0.665444,-1.687376 c 0.09514,0.02387 1.972565,-0.16636 1.972565,-0.16636 z m 49.118565,3.899084 1.47795,0.672871 -3.29306,0.907558 z m -32.17302,0.568894 1.30714,1.021933 -2.234,-0.760508 z m 35.06355,0.573353 2.0498,0.907557 c 4.68264,1.595524 10.4016,3.162868 15.75527,2.043863 -2.23398,1.726448 -3.28437,2.439782 -5.92958,4.00603 l -14.77196,-0.940236 -9.49149,0.167848 v -1.008565 l 4.34322,-2.217649 1.89383,-1.546266 z m -37.17871,0.163389 3.8976,1.235823 0.57037,0.118831 2.92321,1.948799 1.7349,0.950634 2.92321,1.425951 2.0201,0.950634 -0.0956,0.213892 -12.6672,1.188293 -0.26092,0.261423 -0.30895,-0.142594 -3.089567,0.641678 -2.067634,-0.855569 -3.707473,-1.901269 -2.638009,-2.115161 -2.376585,-2.162693 -0.404019,-0.677325 2.067629,0.760507 3.446048,0.154477 3.64806,-0.594146 z m 28.47297,1.752732 0.0342,0.26885 c -0.36969,0.470542 -3.56338,2.285979 -3.56338,2.285979 l 0.0664,-1.881959 z m -21.74871,0.124771 2.89943,0.499082 2.48946,0.295588 c 0.0115,1.512657 1.25577,2.780722 2.79398,2.943994 1.53818,0.163264 3.08291,-0.997522 3.32129,-2.597903 l 1.82996,-0.02377 0.0229,3.16086 -2.18646,0.142595 v 0.190126 l -0.45155,0.04753 -0.095,-0.16636 -1.99633,0.09506 -2.23398,-0.974401 -1.8775,-0.950633 -2.49543,-1.307122 -1.35464,-0.85557 z m 68.97245,36.41126 0.008,11.61457 -1.77998,-0.93825 0.0371,-9.56525 z m -104.814825,2.14487 1.640338,1.2695 0.258949,10.29407 -1.52646,0.97044 z" /></g></g></svg>
