<?xml version="1.0" encoding="UTF-8" standalone="no"?>
<!-- Created with Inkscape (http://www.inkscape.org/) -->

<svg
   width="198.4375mm"
   height="198.4375mm"
   viewBox="0 0 198.4375 198.4375"
   version="1.1"
   id="svg1"
   inkscape:version="1.4.2 (ebf0e940d0, 2025-05-08)"
   sodipodi:docname="Halle.svg"
   xml:space="preserve"
   xmlns:inkscape="http://www.inkscape.org/namespaces/inkscape"
   xmlns:sodipodi="http://sodipodi.sourceforge.net/DTD/sodipodi-0.dtd"
   xmlns="http://www.w3.org/2000/svg"
   xmlns:svg="http://www.w3.org/2000/svg"><sodipodi:namedview
     id="namedview1"
     pagecolor="#ffffff"
     bordercolor="#000000"
     borderopacity="0.25"
     inkscape:showpageshadow="2"
     inkscape:pageopacity="0.0"
     inkscape:pagecheckerboard="0"
     inkscape:deskcolor="#d1d1d1"
     inkscape:document-units="mm"
     inkscape:zoom="0.68417508"
     inkscape:cx="369.05758"
     inkscape:cy="217.78051"
     inkscape:window-width="1920"
     inkscape:window-height="996"
     inkscape:window-x="0"
     inkscape:window-y="0"
     inkscape:window-maximized="1"
     inkscape:current-layer="layer1"
     showguides="true" /><defs
     id="defs1" /><g
     inkscape:label="Ebene 1"
     inkscape:groupmode="layer"
     id="layer1"
     transform="translate(-37.985932,6.3671872)"><g
       id="g1"><rect
         style="fill:none;fill-opacity:1;stroke:none;stroke-width:0.159285"
         id="rect12"
         width="198.27821"
         height="198.27821"
         x="38.065575"
         y="-6.2875447" /><path
         id="rect1"
         style="fill:#cccccc;fill-opacity:1;stroke:none;stroke-width:0.237547"
         d="m 185.18211,1.7294759 -1.10277,0.5632731 0.18758,0.8242391 -0.62735,0.7746297 0.15658,1.7265096 0.92553,0.9213908 -3.09801,36.8334108 -0.40566,0.129708 -0.33486,0.436666 0.0501,0.492993 0.37827,0.295072 -0.047,0.623218 -0.38292,0.08733 -0.0873,1.186491 -0.67955,1.720825 -0.36948,-0.001 0.006,-0.864547 0.19275,-0.183451 0.0956,-0.754993 -0.47077,-0.252181 -0.49403,0.217041 -0.0362,0.568957 0.33538,0.395842 -0.0413,0.95033 -0.27285,0.05013 -0.21291,5.397603 0.23874,0.188619 -0.061,0.305408 0.31987,0.187585 -0.15244,5.017782 -1.14722,4.168221 -2.06912,5.537646 0.48369,0.747758 -0.28474,5.395537 -1.09709,2.779675 -1.69447,-10e-4 -1.2268,-17.363798 0.524,-0.67231 -0.61443,-0.806152 -0.94568,0.721403 0.48007,0.696081 -1.20561,18.321879 -0.97565,-0.166398 -1.20974,1.46141 0.20515,14.243058 0.82786,0.463537 0.17363,28.352276 -1.28364,1.32809 -0.0786,11.92743 -3.22513,2.65307 0.50695,0.19947 0.002,7.40213 -2.71715,-0.48679 -0.39274,-0.36638 0.0155,-2.48461 -0.54777,-0.16123 -0.15296,-1.84226 -0.43357,0.0119 0.10129,-0.40256 0.20671,-0.27026 0.0806,-0.77877 -0.22996,-0.98702 -0.80408,-0.81597 -0.75396,-0.46664 -0.39533,-1.57975 -0.41754,-3.42201 -0.16795,-1.58336 -0.0512,-3.99718 -0.15038,-1.70532 -0.96997,0.45992 -0.89142,-0.0594 0.19793,-0.40927 -0.062,-0.89039 0.046,-1.1746 0.51314,-0.69454 1.88413,0.24702 0.91105,-0.0543 -0.0501,-0.60255 0.33745,-0.0419 0.16692,-1.12138 0.28163,-1.47277 0.38086,-1.13895 0.48782,-1.51464 0.0114,-0.93896 0.33022,-0.71675 0.2713,-1.47846 0.28887,-0.0941 0.25786,-0.10645 0.0413,-0.42478 0.23978,-0.62632 -0.37103,-0.76119 0.10903,-0.70849 -0.38809,-0.6506 -0.38189,-0.0894 -0.33899,-0.44545 -0.38758,-0.10749 -0.001,-0.69143 -0.59996,-0.0243 0.11627,-0.78806 -0.24701,-0.4005 -0.55914,0.0543 -0.35037,-0.0481 -0.0424,-0.76585 -0.36019,-0.4377 -0.32401,-0.7829 0.03,-0.89865 -0.4377,-0.53485 0.19379,-0.55139 -0.21291,-0.31523 -0.0372,-0.33899 -0.51108,-0.16382 -0.90434,-2.62361 -0.66043,-1.052133 -0.71675,-2.04277 -0.52968,-1.760616 -0.93276,-1.597835 -1.16841,-1.176672 -0.64957,-0.08837 -1.24747,-0.487826 -0.54312,-0.486792 -0.16071,-1.326017 -0.33435,-1.074353 -0.0258,-0.903304 -0.43149,-1.333769 -1.11466,-2.133203 -1.20613,-0.910539 -2.20039,-0.400492 -1.10639,0.298173 -1.30276,0.466638 -1.63659,2.910934 0.16795,0.644405 -0.44701,0.247013 -0.0858,0.548287 0.25993,0.259933 -0.11162,0.686779 -0.15348,0.347266 -0.24804,0.37052 -1.03922,0.0739 0.0176,1.214913 -2.2474,0.475423 -2.64997,2.118217 -5.11028,3.557406 -0.49093,3.792534 0.3514,1.12086 -0.77721,-0.006 0.60771,1.079 1.09709,2.53266 0.38137,2.02262 0.31006,0.10852 0.65939,-0.57257 0.27596,1.10639 0.67489,0.85628 1.22835,0.41444 -0.0558,0.5271 1.10897,0.46251 0.33538,-0.29611 1.02888,1.04128 -0.94671,4.97489 -0.5979,1.13895 0.23048,0.44183 -0.36845,1.98024 -0.17157,2.01177 0.92863,0.92966 0.40152,0.72967 0.34727,0.62942 0.64027,0.30902 0.62063,0.002 0.10026,5.06635 0.42271,0.0543 -0.046,-4.97903 2.28358,0.61547 0.10128,4.49068 0.4005,0.14883 0.45475,2.92385 0.78807,1.96474 0.48782,2.61172 -0.001,0.53382 -0.48266,0.80719 -0.0915,0.77411 -0.64854,0.76378 0.0672,0.30644 -0.43873,0.7798 -1.50275,-0.0243 -4.75785,4.16202 -0.0672,0.53898 -4.56716,3.79047 0.35605,0.73742 0.3576,0.3142 -0.22789,1.18649 0.49402,0.18603 2.07688,-0.0703 0.39015,0.27905 0.004,0.60927 0.43356,0.2527 -0.18138,0.9896 -0.0925,3.13211 0.14934,0.3514 0.0708,2.96209 -0.20515,0.48369 0.0656,3.91604 -0.1819,0.32505 0.0734,1.58233 -2.49855,0.0537 0.0134,-1.14101 -1.47639,0.0114 0.0202,-3.8933 0.41755,-0.21911 0.0429,-0.20567 -1.1374,-0.89246 0.0786,-11.95534 0.37517,-0.34726 -0.38447,-0.28423 0.0646,-10.71407 0.19069,-0.31729 -0.28836,-0.42168 0.0362,-11.46339 0.75706,-0.41961 -0.4377,-0.44493 0.11059,-1.27848 -1.37046,-1.20871 -0.06,-1.40146 0.50385,-0.38913 -0.60255,-0.57929 -0.0419,-3.07371 -0.24288,-0.58912 -0.0444,-1.25263 -0.36948,0.83095 -1.58699,-1.57819 -0.0712,-4.7778 0.18395,-0.25477 -0.19234,-0.30833 -0.0208,-1.39151 -0.11679,-0.50591 -0.20154,0.32246 -0.30696,-0.0532 -0.21497,-0.48989 -0.44597,-0.44959 -0.0527,-0.35966 -0.12764,-0.15038 -0.0424,-2.50734 0.3514,-0.42788 -0.34195,-0.50695 -0.11696,-1.62363 -0.0938,0.0337 -0.0926,1.59872 -0.38757,0.43873 0.35347,0.4656 -0.0894,2.57762 -0.22066,0.18191 0.0522,0.32711 -0.91778,0.95963 -0.16743,-0.12971 -0.19482,-0.77463 -0.23254,0.80305 0.0672,0.23048 0.008,1.36243 -0.23776,0.22555 0.23874,0.30433 -0.005,2.9384 -0.0558,0.13023 -0.0119,0.23719 0.12661,0.15451 0.01,0.5762 -0.0982,0.8108 -0.86041,0.65474 -0.35915,0.38551 -0.42272,-0.36277 -0.26872,0.24598 0.20878,0.18707 -0.0305,0.41237 -0.2558,0.4067 -0.18552,0.44338 -0.19017,3.09077 -0.48576,0.33848 0.44959,0.46147 -0.004,2.66134 -0.185,0.6351 -5.85597,-1.30793 0.0238,-0.14521 0.39377,-0.31523 -0.71365,-0.54622 0.0651,-1.3379 -1.26245,-1.02578 -0.0243,-1.56114 0.41238,-0.15658 0.0723,-0.27492 -0.74259,-0.60617 0.06,-2.22467 -0.16175,-0.93534 -0.49351,-1.18752 0.22789,-0.33228 -0.2222,-0.37259 -0.35089,0.54105 -0.65577,-0.67748 -0.90951,-0.68264 -0.0176,-0.37621 0.17364,-0.35243 -0.18449,-0.14573 -10e-4,-0.67851 0.21084,-0.31626 -0.21394,-0.23461 -0.004,-2.76262 0.26768,-0.33641 -0.24701,-0.25167 -0.004,-1.264 0.2248,-0.25374 -0.27337,-0.20877 0.10748,-0.40876 -0.16433,-0.61753 -0.31522,0.39584 0.0501,0.38034 -0.0997,0.19688 -0.27492,-0.38447 -0.22376,-0.25011 -0.1173,-0.38758 -0.50695,-0.41961 -0.11782,-0.75344 -0.076,-2.715599 0.32608,-0.222725 0.0853,-0.571025 -0.56741,-0.404626 -0.078,-1.708423 -0.18552,1.819527 -0.25011,0.134876 -0.0713,0.494543 0.38241,0.401526 -0.12558,3.244246 -0.14159,0.39791 -0.44183,0.0589 -0.045,0.34727 -0.39739,0.39687 -0.44597,-0.54312 -0.28215,0.28991 0.12867,0.38757 -0.13539,0.30283 0.19172,0.16691 0.006,1.15445 -0.42323,0.32298 0.0155,0.24185 0.34726,0.44803 0.01,2.72438 -0.2005,0.22944 0.18965,0.10749 0.0584,0.74518 -0.22221,0.18345 0.0863,0.51004 -1.29863,1.09709 -0.40049,0.48783 -0.16898,-0.5271 -0.34313,0.0413 -0.0775,0.28732 0.18397,0.26304 0.0481,0.40152 -0.49764,0.82889 0.001,2.57555 -0.8723,0.89452 0.66663,0.26407 -0.0119,1.63711 -1.35134,0.84904 -0.0729,1.61851 -0.49093,0.34003 0.863,0.82424 0.0284,9.75186 -0.31729,-0.29094 -0.0553,1.5198 -0.78704,0.062 -1.603,-18.61541 0.178801,-0.19688 -0.03411,-1.1219 -0.191719,-0.39584 -1.128097,-14.074078 -0.06459,-1.299145 0.463537,-0.236678 -0.04289,-0.67076 -0.311092,-0.473873 -0.586528,0.03256 -0.401526,0.555005 0.15658,0.667143 0.318327,0.133842 -0.06098,3.487124 -0.847494,11.84682 -0.279053,0.1788 -0.02584,0.95137 0.236678,0.2651 -1.802474,18.59111 -0.607198,-0.0171 0.195337,-0.8475 -0.276986,-0.22169 0.128675,-0.51418 -0.592212,0.0584 0.05116,1.048 -0.337448,0.31213 -0.522965,3.04736 -0.38654,0.91364 0.360702,0.35553 -0.001,6.68435 -0.714685,0.2589 -0.764811,-0.20981 -1.482597,0.0491 -1.350305,-1.21646 -0.02584,-3.2303 0.300757,-0.14572 -0.267684,-4.18993 0.451652,-0.30179 -0.473873,-1.1467 -0.691431,-2.87062 0.141593,-1.0201 -0.460953,-0.41341 -0.03824,1.51981 -0.785998,0.0723 -1.837614,-19.11149 0.174666,-0.19792 -0.04754,-1.1219 -0.19482,-0.39377 -1.306897,-14.468369 -0.07906,-1.298112 0.460953,-0.242879 -0.05219,-0.669726 -0.318327,-0.470773 -0.586527,0.04031 -0.395325,0.560172 0.164331,0.664559 0.320394,0.130225 -0.01757,3.487642 -0.695565,12.265401 -0.275952,0.18241 -0.0155,0.95188 0.239779,0.262 -1.754415,19.1301 -0.607715,-0.01 0.185002,-0.84904 -0.280086,-0.22014 0.122473,-0.51573 -0.592212,0.0661 0.06511,1.04697 -0.333313,0.31626 -0.298173,3.05252 -0.375171,0.91726 0.365353,0.3514 0.08527,7.93388 -0.949813,1.27589 -1.271757,40.92102 H 204.42538 l -0.37723,-27.91251 0.37827,-17.05477 0.0134,-0.25373 -0.46767,-0.23616 -0.16226,-0.35244 -2.51665,-1.52548 -0.32814,-11.34918 0.19534,-0.41238 -0.39326,-0.19999 0.21807,-0.62218 -0.73897,-0.19896 -0.0491,-5.97431 0.22996,-0.14056 -0.0103,-0.51625 -0.36432,-0.18862 0.11938,-7.68635 0.18396,-0.35191 0.19379,-0.4129 0.24081,-0.40824 -0.0636,-0.34158 -0.10025,-8.51111 0.3855,-0.11627 -0.0134,-0.25787 -0.45062,-0.305403 -0.0346,-2.735234 0.3483,-0.187585 -0.004,-0.339515 -0.53434,-0.05891 -0.0134,-0.985986 0.15451,-0.198954 -0.0114,-0.905371 0.57619,-1.783354 0.47543,-1.19786 -0.20154,-0.514697 -0.71365,-0.904338 0.14831,-4.829679 0.19172,-0.714685 -0.0393,-1.005623 -0.50695,-1.123446 -0.57413,-0.665076 -0.58084,0.677478 -0.39171,-0.2682 -1.47639,-17.843356 0.2651,-0.375687 -0.0491,-0.731739 -0.49817,-0.203605 -0.3545,0.479557 -0.0429,0.565341 0.27182,0.217557 -1.18546,17.22944 -1.0759,-0.01034 -1.35599,-2.186946 0.0176,-0.411861 -0.16278,-0.138493 -0.002,-3.393592 0.27596,-0.186551 -0.0269,-0.392741 -0.24391,-0.621151 -0.0481,-5.726782 0.21653,-0.10542 -0.0248,-0.312126 0.2589,-0.115755 -0.0212,-0.320911 -0.3545,-0.37052 -1.5937,-5.226554 -1.19683,-4.761467 -0.25993,-4.399214 0.32556,-0.485242 0.32195,-2.956925 -0.25373,-0.740007 0.0481,-1.297595 -0.47388,-0.08165 0.0212,-0.806669 0.30696,-0.153996 -0.047,-0.629419 -0.32453,-0.421163 -0.55397,0.560173 -0.25011,-1.249019 -0.31213,0.06305 0.004,-0.804602 0.36122,-0.249081 -0.11731,-0.473873 -0.36122,-0.140559 -0.14883,-0.703833 -0.24287,0.84646 -0.10439,0.598413 0.27388,0.166398 -0.0791,1.267623 -0.43253,-0.07028 -2.67426,-38.5625044 0.83613,-0.8867676 0.37465,-1.7363281 -0.54415,-0.8862508 0.16226,-0.9916708 z m -47.76762,97.6968791 -0.0176,1.624195 -0.59222,0.0191 -0.23461,0.96996 0.30386,0.32711 -0.0961,4.29121 -0.65887,-0.67231 -0.30593,-0.40566 -0.3054,-0.78083 -0.10801,-0.72192 -0.42788,-0.15658 -0.0501,-1.57096 0.27801,-0.15141 -0.0114,-0.38964 -0.678,-0.37104 1.06919,-1.04438 z m 15.06781,3.684015 0.86765,2.32957 -0.35864,0.42788 0.33228,0.49765 -0.11317,0.63872 0.60617,-0.0362 1.26659,2.76728 0.19998,0.80822 -3.46697,-0.89969 -0.58136,-1.08676 z m -45.99461,3.95893 0.26562,0.26613 -0.21549,0.27285 -0.21601,-0.0331 -0.0331,-0.25735 z m 1.32757,0.0584 0.30747,0.19069 0.0248,0.27388 -0.28267,0.23203 -0.14108,-0.28215 z m 16.49667,4.14549 0.1173,0.57516 0.24598,0.0956 -0.0227,0.91415 -0.28215,-0.16329 0.047,-0.20103 -0.21188,-0.17518 0.0362,-0.30541 -0.17674,-0.19998 -0.0227,-0.26976 z m -1.03301,0.0351 -0.0594,0.5519 0.17673,0.1757 0.0119,0.16485 -0.24598,0.35192 -0.29404,0.0357 -0.12661,-0.54053 0.23513,-0.2465 -0.0956,-0.16381 -0.1416,-0.24702 z m -0.90434,0.3762 0.0594,0.62167 -0.0476,0.26975 -0.1173,-0.11731 v -0.51418 z m 2.71146,0.19896 0.11731,0.32917 -0.0703,0.56431 -0.11731,-0.56431 z m 20.03754,8.83925 1.10949,2.60087 0.85318,2.57711 0.27078,1.24643 1.60197,2.73937 -0.063,3.85661 0.76377,1.57097 -0.33796,1.62005 -0.22221,0.24237 -0.13953,0.75654 -1.26865,0.91829 -0.83509,1.07642 -0.10956,0.817 0.0894,0.5762 0.18862,0.45165 -0.31832,0.36018 -0.0724,0.38189 -0.76791,0.0238 -0.006,-0.45785 0.16072,-0.31678 0.03,-1.1374 -0.47491,-1.65416 -0.10335,-1.89652 0.0956,-2.70837 -0.0724,-2.3368 0.14263,-2.55127 -0.004,-0.66042 -0.90951,-1.85415 0.13746,-6.00894 z m -30.85962,4.15685 1.77664,0.16692 1.3441,0.59686 1.20561,1.19579 0.0119,10.23194 -0.32556,0.52865 0.2992,0.48214 -0.0682,1.10381 -2.389,-2.79725 -1.96422,-3.81269 -1.16789,0.55811 -0.045,-0.88729 0.008,-6.12934 0.14986,-0.92242 z m 38.98057,0.29197 0.0155,1.07952 -0.68058,0.33228 0.0501,-1.19579 z m -51.86557,8.25273 10e-4,0.20154 -0.0191,-0.0822 z m 63.9594,17.13746 0.002,9.54825 -2.03708,0.008 -0.008,-6.83886 -0.16949,-1.30897 0.7276,-0.68057 z"
         sodipodi:nodetypes="cccccccccccccccccccccccccccccccccccccccccccccccccccccccccccccccccccccccccccccccccccccccccccccccccccccccccccccccccccccccccccccccccccccccccccccccccccccccccccccccccccccccccccccccccccccccccccccccccccccccccccccccccccccccccccccccccccccccccccccccccccccccccccccccccccccccccccccccccccccccccccccccccccccccccccccccccccccccccccccccccccccccccccccccccccccccccccccccccccccccccccccccccccccccccccccccccccccccccccccccccccccccccccccccccccccccccccccccccccccccccccccccccccccccccccccccccccccccccccccccccccccccccccccccccccccccccccccccccccccccccccccccccccccccccccccccccccccccccccccccccccccccccccccccccccccccccccccccccccccccccccccccccccccccccccccccccccccccccccccccccccccccccccccccccccccccccccccccc"
         inkscape:label="path1" /></g></g></svg>
