<?xml version="1.0" encoding="UTF-8" standalone="no"?>
<!-- Created with Inkscape (http://www.inkscape.org/) -->

<svg
   width="198.4375mm"
   height="198.4375mm"
   viewBox="0 0 198.4375 198.4375"
   version="1.1"
   id="svg1"
   inkscape:version="1.4.2 (ebf0e940d0, 2025-05-08)"
   sodipodi:docname="Merseburg.svg"
   xml:space="preserve"
   xmlns:inkscape="http://www.inkscape.org/namespaces/inkscape"
   xmlns:sodipodi="http://sodipodi.sourceforge.net/DTD/sodipodi-0.dtd"
   xmlns="http://www.w3.org/2000/svg"
   xmlns:svg="http://www.w3.org/2000/svg"><sodipodi:namedview
     id="namedview1"
     pagecolor="#ffffff"
     bordercolor="#000000"
     borderopacity="0.25"
     inkscape:showpageshadow="2"
     inkscape:pageopacity="0.0"
     inkscape:pagecheckerboard="0"
     inkscape:deskcolor="#d1d1d1"
     inkscape:document-units="mm"
     inkscape:zoom="0.6225"
     inkscape:cx="177.51004"
     inkscape:cy="310.04016"
     inkscape:window-width="1920"
     inkscape:window-height="996"
     inkscape:window-x="0"
     inkscape:window-y="0"
     inkscape:window-maximized="1"
     inkscape:current-layer="layer1" /><defs
     id="defs1" /><g
     inkscape:label="Ebene 1"
     inkscape:groupmode="layer"
     id="layer1"
     transform="translate(-28.567183,-54.477342)"><g
       id="g1"><rect
         style="fill:none;fill-opacity:1;stroke:none;stroke-width:0.095938"
         id="rect4"
         width="198.34157"
         height="198.34157"
         x="28.615152"
         y="54.525311" /><path
         id="path3"
         style="fill:#cccccc;fill-opacity:0.909206;stroke:none;stroke-width:0.1"
         d="m 98.653346,59.944499 -0.0971,2.975012 c -0.72759,0.05314 -1.28451,0.498164 -1.35548,1.083138 -0.0793,0.653036 0.4675,1.28472 1.27176,1.469161 l -0.0181,0.557072 -0.3545,0.505913 0.22841,0.466638 -0.42995,2.866491 -0.43976,0.662492 -0.0749,0.671277 -9.36119,23.834203 -0.217041,-0.06563 0.01654,0.61547 -6.088517,14.956184 -5.552116,4.79506 -2.184363,-10.44381 0.122473,-0.2899 -0.269234,-0.31161 -0.191719,-1.38183 0.181901,-0.22738 -0.179834,-0.17983 -0.04909,-0.62787 c 0.45458,-0.0873 0.778762,-0.37732 0.824756,-0.73794 0.06352,-0.49892 -0.417884,-0.97131 -1.075387,-1.05523 -0.657661,-0.0838 -1.242306,0.25287 -1.305863,0.75189 -0.05805,0.45634 0.341415,0.89814 0.931209,1.02991 l -0.07648,0.56638 -0.216524,0.19637 0.154512,0.24804 -0.150378,1.38131 -0.20929,0.26459 0.164332,0.29507 -3.097486,13.81931 -0.100769,0.20929 -0.0863,0.66404 -2.450496,2.28152 -0.325561,0.0429 -0.03307,2.86597 0.164331,0.16382 0.286287,0.0486 0.05064,0.15813 0.309542,0.0284 -0.0026,0.32142 -0.04237,0.15813 0.14056,0.24908 0.201538,0.078 -0.08475,0.26821 0.147795,0.27285 0.297656,-0.006 0.01085,0.18241 0.223759,0.0579 -0.01344,0.68885 0.181384,-0.0326 0.04393,0.19844 0.1757,0.0103 0.03979,0.23617 0.180867,0.0889 0.04186,0.84853 -0.196887,0.0258 -0.01602,0.17467 -0.597379,0.0357 0.0031,2.19521 0.164848,-0.0377 -0.03256,0.26407 0.387573,0.14624 0.04289,10.41642 -0.343648,-0.0413 -0.07338,0.47387 0.288355,-0.0997 -0.03772,0.30645 0.154512,0.1235 -0.0093,6.45697 -0.454235,0.36794 0.384989,0.31522 -0.04754,0.74311 -0.237712,0.0832 -0.155029,0.54415 0.08837,0.60358 -0.64854,0.27751 0.08475,1.73943 0.655774,0.46715 -0.07338,3.70933 0.241846,0.12299 -0.221175,0.44856 0.575675,0.26406 0.06615,0.36432 0.361218,0.30231 0.03566,0.64957 -0.512113,0.0992 0.0067,1.18287 0.492994,0.15193 -0.04186,2.31511 0.06253,0.52761 0.0026,1.26556 0.06666,0.30902 0.25063,50.57056 -0.464571,5.67562 0.119889,9.89862 -1.805574,0.0279 -0.887801,-0.0134 -0.04909,0.33125 -0.615466,0.34055 -0.02015,0.41961 -0.532267,0.41651 0.637687,0.71262 -0.264583,0.37052 0.04858,0.68781 -0.759127,0.25838 -11.250993,0.21911 0.21239,3.6127 -4.484481,4.2969 0.127641,3.56619 156.41216,-0.42478 -0.11731,-5.24723 -10.33787,-2.04018 -1.29501,-2.06344 -0.0139,-6.09575 0.1757,-0.0372 0.0243,-0.47853 -0.2589,-0.0656 0.002,-0.19637 -0.27027,-0.36742 -0.0372,-7.06986 -0.44803,-1.30844 0.0636,-0.29921 -0.21394,-1.67277 -4.13825,-0.3824 -0.0367,-0.28939 -0.12299,-0.0605 -0.10749,-0.29146 -0.0636,-0.32659 -0.0238,-1.78181 -0.35295,-0.0331 -0.0605,-0.20515 -0.52555,-0.0145 -0.54209,-3.25097 0.69247,-0.0294 -0.0109,-0.2341 -1.47071,-0.41186 -0.0543,-1.10019 -0.062,-1.14722 -0.20515,-0.45785 0.0455,-0.46405 -0.22789,-0.37621 -0.0119,-1.70842 -0.1173,-0.48989 0.67283,-0.15607 -0.70229,-0.31316 -42.41033,-14.83372 -16.97829,1.7291 0.18138,-27.95644 0.0222,-0.52761 0.15141,-0.0155 0.0496,-0.15452 0.15399,-0.15038 0.0202,-0.5767 0.18862,-0.0558 0.0165,-0.12299 0.14211,-0.0512 0.0873,-0.19276 0.13798,-0.10593 5.2e-4,-0.0749 -0.6072,-0.30489 0.007,-0.98495 0.60359,-0.7338 0.0842,-0.34985 0.24598,-0.23772 0.0336,-0.52761 0.1788,-0.15245 -0.0238,-3.39669 0.21859,-0.11317 0.005,-0.24753 0.43718,-0.46819 -0.032,-0.39481 -0.57051,-0.28525 0.0667,-0.78238 0.006,-0.47491 -0.21188,-0.0682 -0.0305,-0.262 -0.18036,-0.15193 -0.1111,-18.56424 0.15658,-0.10284 0.017,-0.21652 0.23151,-0.10025 0.0398,-0.35347 0.21653,-0.10955 0.0243,-0.22996 0.13591,-0.1509 -0.7457,-0.55914 0.004,-2.23035 0.30127,-0.18501 0.0181,-0.19016 0.15658,-0.11473 0.0382,-0.22634 -0.11937,-0.1173 0.26303,-0.31058 0.70693,-0.44907 0.10749,-0.35812 1.00097,-1.42988 0.11317,-0.31936 -2.87476,-3.45612 -3.05562,-14.65079 0.16071,-0.19275 -0.20102,-0.18397 -0.24443,-1.41335 0.12609,-0.23409 -0.20257,-0.13798 -0.15503,-0.4408 c 0.52065,-0.049 0.91291,-0.35756 0.96376,-0.75809 0.0635,-0.49892 -0.41788,-0.97132 -1.07538,-1.05524 -0.65766,-0.0838 -1.24231,0.25287 -1.30587,0.7519 -0.0593,0.46453 0.35522,0.91259 0.9586,1.03611 l -0.13022,0.45837 -0.20361,0.12402 0.1447,0.18862 -0.28422,1.37511 -0.29559,0.25218 0.19688,0.22634 -1.7694,9.19893 -5.68234,-5.76399 -6.07663,-16.777784 -0.031,-0.89917 -0.36536,0.06046 -8.59637,-23.816116 0.0191,-0.663526 -0.37982,-0.485758 -0.615474,-3.020488 0.22531,-0.31936 -0.36431,-0.47749 -0.0672,-0.600997 c 0.63462,-0.11409 1.092164,-0.532773 1.155994,-1.057817 0.0858,-0.70551 -0.556924,-1.374997 -1.440734,-1.500683 z m 50.580894,142.085891 0.3452,0.69092 0.26562,1.38131 0.0532,0.61081 v 2.55024 l -0.50488,0.1328 0.3452,0.34572 -0.15916,0.39843 0.26562,0.37155 h -0.31885 l -0.26561,0.21291 -0.21239,-0.34572 -0.10646,-0.76998 0.21239,-0.0269 -0.26561,-0.50488 0.0801,-4.32997 z" /></g></g></svg>
