<?xml version="1.0" encoding="UTF-8" standalone="no"?>
<svg
   version="1.1"
   id="Layer_1"
   x="0px"
   y="0px"
   viewBox="0 0 749.99992 749.99999"
   enable-background="new 0 0 1782.8 1650.875"
   xml:space="preserve"
   sodipodi:docname="New-York.svg"
   width="749.99994"
   height="750"
   inkscape:version="1.4.2 (ebf0e940d0, 2025-05-08)"
   xmlns:inkscape="http://www.inkscape.org/namespaces/inkscape"
   xmlns:sodipodi="http://sodipodi.sourceforge.net/DTD/sodipodi-0.dtd"
   xmlns="http://www.w3.org/2000/svg"
   xmlns:svg="http://www.w3.org/2000/svg"><defs
   id="defs1961">
	
	
	
	
	
	
	
	
	
	
	
	
	
	
	
	
	
	
	
	
	
	
	
	
	
	
	
	
	
	
	
	
	
	
	
	
	
	
	
	
	
	
	
	
	
	
	
	
	
	
	
	
	
	
	
	
	
	
	
	
	
	
	
	
	
	
	
	
	
	
	
	
	
	
	
	
	
	
	
	
	
	
	
	
	
	
	
	
	
	
	
	
	
	
	
	
	
	
	
	
	
	
	
	
	
	
	
	
	
	
	
	
	
	
	
	
	
	
	
	
	
	
	
	
	
	
	
	
	
	
	
	
	
	
	
	
	
	
	
	
	
	
	
	
	
	
	
	
	
	
	
	
	
	
	
	
	
	
	
	
	
	
	
	
	
	
	
	
	
	
	
	
	
	
	
	
	
	
	
	
	
	
	
	
	
	
	
	
	
	
	
	
	
	
	
	
	
	
	
	
	
	
	
	
	
	
	
	
	
	
	
	
	
	
	
	
	
	
	
	
	
	
	
	
	
	
	
	
	
	
	
	
	
	
	
	
	
	
	
	
	
	
	
	
	
	
	
	
	
	
	
	
	
	
	
	
	
	
	
	
	
	
	
	
	
	
	
	
	
	
	
	
	
	
	
	
	
	
	
	
	
	
	
	
	
	
	
	
	
	
	
	
	
	
	
	
	
	
	
	
	
	
	
	
	
	
	
	
	
	
	
	
	
	
	
	
	
	
	
	
	
	
	
	
	
	
	
	
	
	
	
	
	
	
	
	
	
	
	
	
	
	
	
	
	
	
	
	
	
	
	
	
	
	
	
	
	
	
	
	
	
	
	
	
	
	
	
	
	
	
	
	
	
	
	
	
	
	
	
	
	
	
	
	
	
	
	
	
	
	
	
	
	
	
	
	
	
	
	
	
	
	
	
	
	
	
	
	
	
	
	
	
	
	
	
	
	
	
	
	
	
	
	
	
	
	
	
	
	
	
	
	
	
	
	
	
	
	
	
	
	
	
	
	
	
	
	
	
	
	
	
	
	
	
	
	
	
	
	
	
	
	
	
	
	
	
	
	
	
	
	
	
	
	
	
	
	
	
	
	
	
	
	
	
	
	
	
	
	
	
	
	
	
	
	
	
	
	
	
	
	
	
	
	
	
	
	
	
	
	
	
	
	
	
	
	
	
	
	
	
	
	
	
	
	
	
	
	
	
	
	
	
	
	
	
	
	
	
	
	
	
	
	
	
	
	
	
	
	
	
	
	
	
	
	
	
	
	
	
	
	
	
	
	
	
	
	
	
	
	
	
	
	
	
	
	
	
	
	
	
	
	
	
	
	
	
	
	
	
	
	
	
	
	
	
	
	
	
	
	
	
	
	
	
	
	
	
	
	
	
	
	
	
	
	
	
	
	
	
	
	
	
	
	
	
	
	
	
	
	
	
	
	
	
	
	
	
	
	
	
	
	
	
	
	
	
	
	
	
	
	
	
	
	
	
	
	
	
	
	
	
	
	
	
	
	
	
	
	
	
	
	
	
	
	
	
	
	
	
	
	
	
	
	
	
	
	
	
	
	
	
	
	
	
	
	
	
	
	
	
	
	
	
	
	
	
	
	
	
	
	
	
	
	
	
	
	
	
	
	
	
	
	
	
	
	
	
	
	
	
	
	
	
	
	
	
	
	
	
	
	
	
	
	
	
	
	
	
	
	
	
	
	
	
	
	
	
	
	
	
	
	
	
	
	
	
	
	
	
	
	
	
	
	
	
	
	
	
	
	
	
	
	
	
	
	
	
	
	
	
	
	
	
	
	
	
	
	
	
	
	
	
	
	
	
	
	
	
	
	
	
	
	
	
	
	
	
	
	
	
	
	
	
	
	
	
	
	
	
	
	
	
	
	
	
	
	
	
	
	
	
	
	
	
	
	
	
	
	
	
	
	
	
	
	
	
	
	
	
	
	
	
	
	
	
	
	
	
	
	
	
	
	
	
	
	
	
	
	
	
	
	
	
	
	
	
	
	
	
	
	
	
	
	
	
	
	
	
	
	
	
	
	
	
	
	
	
	
	
	
	
	
	
	
	
	
	
	
	
	
	
	
	
	
	
	
	
	
	
	
	
	
	
	
	
	
	
	
	
	
	
	
	
	
	
	
	
	
	
	
	
	
	
	
	
	
	
	
	
	
	
	
	
	
	
	
	
	
	
	
	
	
	
	
	
	
	
	
	
	
	
	
	
	
	
	
	
	
	
	
	
	
	
	
	
	
	
	
	
	
	
	
	
	
	
	
	
	
	
	
	
	
	
	
	
	
	
	
	
	
	
	
	
	
	
	
	
	
	
	
	
	
	
	
	
	
	
	
	
	
	
	
	
	
	
	
	
	
	
	
	
	
	
	
	
	
	
	
	
	
	
	
	
	
	
	
	
	
	
	
	
	
	
	
	
	
	
	
	
	
	
	
	
	
	
	
	
	
	
	
	
	
	
	
	
	
	
	
	
	
	
	
	
	
	
	
	
	
	
	
	
	
	
	
	
	
	
	
	
	
	
	
	
	
	
	
	
	
	
	
	
	
	
	
	
	
	
	
	
	
	
	
	
	
	
	
	
	
	
	
	
	
	
	
	
	
	
	
	
	
	
	
	
	
	
	
	
	
	
	
	
	
	
	
	
	
	
	
	
	
	
	
	
	
	
	
	
	
	
	
	
	
	
	
	
	
	
	
	
	
	
	
	
	
	
	
	
	
	
	
	
	
	
	
	
	
	
	
	
	
	
	
	
	
	
	
	
	
	
	
	
	
	
	
	
	
	
	
	
	
	
	
	
	
	
	
	
	
	
	
	
	
	
	
	
	
	
	
	
	
	
	
	
	
	
	
	
	
	
	
	
	
	
	
	
	
	
	
	
	
	
	
	
	
	
	
	
	
	
	
	
	
	
	
	
	
	
	
	
	
	
	
	
	
	
	
	
	
	
	
	
	
	
	
	
	
	
	
	
	
	
	
	
	
	
	
	
	
	
	
	
	
	
	
	
	
	
	
	
	
	
	
	
	
	
	
	
	
	
	
	
	
	
	
	
	
	
	
	
	
	
	
	
	
	
	
	
	
	
	
	
	
	
	
	
	
	
	
	
	
	
	
	
	
	
	
	
	
	
	
	
	
	
	
	
	
	
	
	
	
	
	
	
	
	
	
	
	
	
	
	
	
	
	
	
	
	
	
	
	
	
	
	
	
	
	
	
	
	
	
	
	
	
	
	
	
	
	
	
	
	
	
	
	
	
	
	
	
	
	
	
	
	
	
	
	
	
	
	
	
	
	
	
	
	
	
	
	
	
	
	
	
	
	
	
	
	
	
	
	
	
	
	
	
	
	
	
	
	
	
	
	
	
	
	
	
	
	
	
	
	
	
	
	
	
	
	
	
	
	
	
	
	
	
	
	
	
	
	
	
	
	
	
	
	
	
	
	
	
	
	
	
	
	
	
	
	
	
	
	
	
	
	
	
	
	
	
	
	
	
	
	
	
	
	
	
	
	
	
	
	
	
	
	
	
	
	
	
	
	
	
	
	
	
	
	
	
	
	
	
	
	
	
	
	
	
	
	
	
	
	
	
	
	
	
	
	
	
	
	
	
	
	
	
	
	
	
	
	
	
	
	
	
	
	
	
	
	
	
	
	
	
	
	
	
	
	
	
	
	
	
	
	
	
	
	
	
	
	
	
	
	
	
	
	
	
	
	
	
	
	
	
	
	
	
	
	
	
	
	
	
	
	
	
	
	
	
	
	
	
	
	
	
	
	
	
	
	
	
	
	
	
	
	
	
	
	
	
	
	
	
	
	
	
	
	
	
	
	
	
	
	
	
	
	
	
	
	
	
	
	
	
	
	
	
	
	
	
	
	
	
	
	
	
	
	
	
	
	
	
	
	
	
	
	
	
	
	
	
	
	
	
	
	
	
	
	
	
	
	
	
	
	
	
	
	
	
	
	
	
	
	
	
	
	
	
	
	
	
	
	
	
	
	
	
	
	
	
	
	
	
	
	
	
	
	
	
	
	
	
	
	
	
	
	
	
	
	
	
	
	
	
	
	
	
	
	
	
	
	
	
	
	
	
	
	
	
	
	
	
	
	
	
	
	
	
	
	
	
	
	
	
	
	
	
	
	
	
	
	
	
	
	
	
	
	
	
	
	
	
	
	
	
	
	
	
	
	
	
	
	
	
	
	
	
	
	
	
	
	
	
	
	
	
	
	
	
	
	
	
	
	
	
	
	
	
	
	
	
	
	
	
	
	
	
	
	
	
	
	
	
	
	
	
	
	
	
	
	
	
	
	
	
	
	
	
	
	
	
	
	
	
	
	
	
	
	
	
	
	
	
	
	
	
	
	
	
	
	
	
	
	
	
	
	
	
	
	
	
	
	
	
	
	
	
	
	
	
	
	
</defs><sodipodi:namedview
   id="namedview1961"
   pagecolor="#ffffff"
   bordercolor="#000000"
   borderopacity="0.25"
   inkscape:showpageshadow="2"
   inkscape:pageopacity="0.0"
   inkscape:pagecheckerboard="0"
   inkscape:deskcolor="#d1d1d1"
   inkscape:zoom="0.3865927"
   inkscape:cx="373.7784"
   inkscape:cy="338.85792"
   inkscape:window-width="1920"
   inkscape:window-height="996"
   inkscape:window-x="0"
   inkscape:window-y="0"
   inkscape:window-maximized="1"
   inkscape:current-layer="Layer_1" />
<g
   id="g1"><rect
     style="fill:#ffffff;fill-opacity:1;stroke:none;stroke-width:0.164878"
     id="rect1961"
     width="749.83508"
     height="749.83514"
     x="0.082438603"
     y="0.082439989" /><path
     id="path1"
     d="m 319.8156,17.836749 c -0.0934,0.005 -0.19746,0.0248 -0.31153,0.0596 -0.934,0.878 -1.13141,2.27853 -2.08691,3.14453 -1.821,1.9055 -4.52603,2.40212 -6.64453,3.87012 -0.102,-0.114 -0.30334,-0.3362 -0.40235,-0.4502 -0.006,-2.15 2.03573,-3.8584 -1.34276,-5.0039 -1.5825,3.186 -1.61527,-0.17085 -4.88477,4.32715 -0.37651,-0.0845 -0.74152,-0.1722 -1.10352,-0.2627 -1.1415,2.3345 -9.37358,5.93944 -2.51758,13.33594 0.823,1.59 1.01564,3.89794 -0.44336,5.21094 -0.995,0.484 -1.48021,-0.61848 -2.13672,-1.12598 -0.741,0.1985 -1.43165,0.64505 -2.22265,0.56055 -0.6915,0.102 -1.83574,-0.32433 -2.01074,0.63867 -0.233,1.1 -1.37127,1.3452 -2.32227,1.4707 -0.018,1.077 0.77249,1.83551 1.27148,2.70801 0.6275,3.7155 -5.22397,3.47776 -0.23047,8.17676 2.6525,1.537 6.00518,-0.34894 7.07618,1.91406 -0.9255,0 -1.8446,-0.038 -2.7666,-0.041 0.026,0.7325 -0.18736,1.54949 0.13964,2.22949 1.129,1.2315 2.78961,1.96274 3.64161,3.44824 0.0995,0.8055 0.0557,1.61728 0.0762,2.42578 -2.7115,1.6845 -1.91683,0.92794 -2.04883,3.46094 0.4935,0.388 0.96343,0.81635 1.37793,1.29785 -0.9485,0.4495 -1.90231,1.2606 -1.69531,2.4336 -0.0375,1.5755 1.77393,1.95805 2.83593,2.64355 -1.675,0.7865 -2.49211,0.73891 -1.68261,2.50391 0.3765,0.89 1.49015,0.87479 2.22265,1.32129 0.6305,1.7215 0.23676,3.58733 0.55176,5.36133 0.105,1.316 0.42309,2.75706 -0.25391,3.97656 -1.446,2.768 0.4475,5.41279 0.625,6.13379 0.134,0.8375 0.0374,1.71801 0.35547,2.52051 0.292,0.6655 0.83139,1.21951 0.96289,1.95801 0.2045,0.785 0.22767,1.68395 0.80567,2.314451 2.4665,2.83 3.61311,0.0466 4.53711,-1.068361 0.3795,0.337 2.6727,16.907021 3.1582,20.061521 2.782,11.697 7.36426,18.87989 7.36426,18.87989 1.187,9.139 3.80569,7.20725 1.45019,13.34375 -4.9215,11.624 -3.83318,24.56056 -2.90918,26.85156 1.7775,1.83499 3.35495,-0.61437 6.48145,1.14063 0.251,1.29549 -0.1928,2.70202 0.4082,3.93651 0.8405,1.49401 2.81311,1.84195 3.66211,3.33594 0.8955,1.806 0.78489,3.87785 1.27539,5.79785 0.7635,2.8785 -0.65839,3.39357 1.09961,7.28906 0.3675,0.71501 0.23892,1.54598 0.41992,2.31348 0.146,0.893 0.57549,1.69863 0.89649,2.53614 1.1185,3.6635 -0.68431,1.45226 2.20019,4.42676 4.935,4.5645 -3.67988,10.49572 -3.50488,13.59472 -0.058,1.803 -0.82541,3.51936 -1.89941,4.94336 -5.4665,7.1455 -6.45356,22.03405 -3.26856,26.93554 0.753,1.255 2.09631,1.99086 2.94531,3.17286 2.5615,2.706 -1.83944,7.92019 -1.54394,21.26269 -0.1025,3.65601 1.30158,7.16089 1.20508,10.81739 0.283,2.02249 0.21898,4.06792 0.27148,6.10742 0.0175,1.3595 1.30708,2.10958 1.95508,3.16309 0,0 0.39215,3.03079 2.26465,10.34179 0.356,1.9315 -0.53762,3.81627 -0.43262,5.75977 0.128,2.372 0.43795,4.74175 0.79395,7.09375 0.715,2.912 0.11396,5.93148 0.52246,8.87598 0.4305,3.6535 2.9752,19.59166 4.5957,22.28516 0.665,1.138 0.896,2.4487 1.0625,3.7412 0.55,4.4555 5.33796,11.5337 5.25196,14.5957 0,0.0175 -1.22429,10.33275 -1.17578,22.19725 0.108,2.53 -1.32155,4.79535 -1.43555,7.29885 0.0465,1.392 -0.90751,2.4972 -1.20801,3.8047 -0.2655,1.0915 -0.51358,2.19105 -0.76758,3.28805 -0.318,1.433 0.21316,2.96865 -0.40234,4.34865 -2.938,7.4135 -3.30125,7.94115 -4.40625,8.05565 -8.902,1.51 -5.49436,1.1788 -9.38086,3.1348 -0.788,0.3415 -0.75002,1.34535 -1.24902,1.94335 -4.556,1.354 -2.96369,2.2984 -5.17969,3.3174 -2.8105,0.5985 -5.66681,1.0686 -8.54981,0.9316 -1.24549,0.134 -2.27917,-0.96635 -3.53417,-0.63085 -0.522,0.502 -0.36143,1.26635 -0.41993,1.92285 -0.7615,0.187 -1.51457,0.39455 -2.24707,0.66605 -0.0205,3.642 0.12318,7.29465 -0.0488,10.93065 -0.6505,0.6365 -1.41814,1.16165 -2.24414,1.53515 -1.37,0.318 -4.92871,-0.70655 -3.76171,2.93845 0.531,0.855 0.98897,1.74785 1.43847,2.65235 1.5025,2.794 2.62272,-1.0804 1.94922,13.8926 -0.575,1.202 -2.26175,1.5003 -2.78125,2.7578 -0.236,2.276 0.0382,4.5812 -0.13379,6.8662 -0.3155,0.709 -1.14127,1.09405 -1.34277,1.87305 -0.2015,0.817 -0.31168,1.66045 -0.65918,2.43945 -5.445,-0.0905 -10.89289,0.041 -16.33789,-0.005 -0.3265,-1.059 -0.46999,-2.58785 -1.77149,-2.87985 -6.6115,-0.4525 -5.54057,-0.005 -5.51757,9.95605 0.105,1.999 -0.67736,3.9505 -0.29786,5.958 0.598,0.7965 1.50871,1.26945 2.22071,1.96095 1.258,6.5325 -2.73182,5.41345 6.34668,5.62595 0.741,1.85 2.61454,2.74265 4.12304,3.86915 1.9945,1.5 1.49362,0.97105 1.55762,7.43555 0.4085,0.0235 0.82316,0.0519 1.24316,0.087 -0.13749,6.3085 0.33258,5.02025 -1.16992,6.25975 -0.1195,2.0575 0.15219,4.1342 -0.19531,6.1797 -0.3355,1.436 -0.12025,2.89495 0.34375,4.27245 -0.2535,1.5845 -0.36693,3.23 0.18457,4.7705 -0.788,1.544 -0.63944,3.2801 -0.64844,4.9551 0.0405,0.7295 -0.58027,1.23215 -0.84277,1.86815 -0.362,1.6835 0.40802,3.42545 -0.12598,5.08595 -0.4725,1.5815 -0.14799,3.29955 0.64551,4.72655 -1.2925,1.036 -1.23208,2.79305 -1.10058,4.29005 0.0465,0.6505 0.65693,1.0034 1.08593,1.4209 -0.347,0.47 -0.89069,0.90765 -0.86718,1.55565 -0.0435,1.4155 -0.18079,2.8767 0.30371,4.2422 -1.284,0 -2.57628,-0.0548 -3.84278,0.1787 0.0205,0.7995 -0.0521,1.61365 0.1084,2.41015 0.6275,0.9225 1.61392,1.541 2.23242,2.4805 -0.0145,1.065 -0.37405,2.1242 -0.14355,3.1982 0.4115,2.0455 -0.16573,4.1906 0.59277,6.1836 -0.896,2.0105 0.20653,4.3241 -0.87597,6.2676 -0.4,1.211 -0.1075,2.5098 0.333,3.6738 -0.508,1.751 -0.57225,3.5873 -0.11425,5.3643 -0.5895,0.0205 -1.16755,0.0549 -1.74805,0.0869 -0.1575,1.783 0.15138,3.5542 0.19238,5.3252 -1.161,1.5 -3.70525,0.99555 -4.53125,2.83105 -0.4115,1.2865 0.29459,2.5239 1.22559,3.3789 -1.074,1.106 -2.71383,1.0761 -3.98633,1.8086 -1.1905,0.875 -0.65313,2.5244 -1.14063,3.7324 -0.3995,0.4785 -0.93314,0.8251 -1.32714,1.3096 -0.645,1.4795 -0.3006,3.13435 -0.4961,4.69235 -1.2955,1.275 -3.13164,1.80045 -4.80664,2.39845 -1.54,0.4445 -0.13104,2.02785 -3.22754,2.83885 0.009,4.613 -0.25315,5.82155 0.40235,7.02055 1.01,1.0445 2.54771,1.78615 3.01171,3.24215 -0.1225,1.6045 0.74494,3.0523 0.64844,4.6543 -0.0365,17.579 -0.38326,12.12825 -5.48926,15.69825 -2.028,2.279 -0.7905,5.495 -1.333,8.1885 -0.546,1.004 -1.20529,2.03125 -1.07129,3.23925 0.121,2.744 -1.30662,17.83505 -1.74512,18.62205 -44.9335,-0.2665 -43.64284,-0.3501 -44.00684,1.3369 -0.1375,2.4945 0.0349,5.0044 -0.0586,7.5049 -0.047,0.8375 -0.90992,1.41755 -0.85742,2.29005 -0.008,3.805 0.0409,7.6129 0.0264,11.4209 0.061,0.7675 -0.58337,1.41245 -0.46387,2.18845 0.1575,1.17 0.19501,2.35265 0.14551,3.53715 -104.9885,2.332 -91.00272,-4.38065 -91.94922,9.71385 -0.2625,1.494 -1.37149,2.7835 -1.16699,4.374 0.0445,0.5005 -0.13524,14.9735 0.69726,17.3125 0.53497,1.3564 0.57448,2.82305 0.49707,4.2754 h 506.65045 c -0.32315,-6.26175 -1.2133,-23.50975 -1.2178,-23.54005 -1.5665,-12.704 2.13385,-9.96725 -6.28515,-10.44725 -1.4495,-0.1505 -84.0946,-1.97535 -84.5996,-1.98435 -0.083,-2.7025 -0.866,-25.5853 -0.8955,-26.8223 -1.699,-0.0485 -41.14235,-1.4506 -42.83985,-1.4736 -0.321,-1.287 -0.28305,-2.61755 -0.47855,-3.91605 -1.8025,-19.475 -1.37865,-16.12195 -2.74315,-16.95895 -0.093,-1.739 0.0705,-3.48735 -0.084,-5.21485 -0.4555,-0.9395 -0.83755,-1.89955 -1.05955,-2.91505 -1.115,-0.855 -2.76925,-0.95095 -3.65625,-2.14745 -2.332,-3.4135 -1.6293,-2.10205 -1.3633,-15.87405 0.855,-0.1925 1.7284,-0.31295 2.6094,-0.37695 0.6515,-7.4705 0.86495,0.3287 1.21095,-12.1943 -0.8025,-0.1955 -1.6164,-0.3118 -2.4219,-0.4463 -0.2185,-0.5985 -0.26925,-1.3599 -0.88475,-1.6924 -1.608,-0.9135 -3.3639,-1.7158 -5.2549,-1.6543 0.2335,-1.8985 1.37255,-2.544 0.22755,-5.416 -0.3415,-0.808 -1.1762,-1.20555 -1.7832,-1.76855 -0.356,-1.135 0.2076,-2.44785 -0.4199,-3.50685 -1.147,-0.5985 -2.53025,-0.348 -3.76175,-0.6455 -0.7695,-2.3435 0.3411,-3.6056 -1.0039,-4.8086 -1.065,-0.9425 -2.33185,-1.64295 -3.29785,-2.69045 -0.2565,-1.4995 0.033,-3.0297 -0.1367,-4.5322 -0.289,-0.919 -1.5524,-1.348 -1.4209,-2.416 -0.2715,-12.3345 -1.3067,-21.84875 0.4668,-23.65625 0.954,-1.053 1.1258,-2.5502 1.1318,-3.9102 -0.823,-0.8025 -2.09455,-0.9388 -3.08105,-1.4873 0.07,-4.7855 0.20875,-3.7205 -1.11425,-5.1445 2.476,-2.884 0.30545,-4.088 0.23045,-6.084 -0.636,-5.893 -1.04445,-3.7505 0.51955,-5.8535 0.61,-0.6095 0.3613,-1.5616 0.4053,-2.3291 0.1515,-1.196 -1.6983,-1.4089 -1.4678,-2.6084 0.029,-2.5795 0.58915,-5.16735 0.11915,-7.73535 -0.1165,-1.3775 -1.3163,-2.24745 -2.0078,-3.33595 0.4935,-0.4345 1.5064,-0.6733 1.3779,-1.5078 0.0965,-1.2985 -0.6743,-2.6406 -0.0295,-3.8721 0.6365,-1.1615 -0.233,-2.3786 -0.4375,-3.5371 -0.4405,-1.118 0.18075,-2.23205 0.17775,-3.35255 0.006,-0.893 -0.049,-1.78005 -0.0693,-2.66405 0.2975,-0.3445 0.6271,-0.65975 0.8926,-1.03025 0.181,-1.8175 -0.98665,-3.54505 -0.78515,-5.3311 2.3305,-2.3515 5.80165,-3.0545 5.49215,-5.1875 1.6075,0.005 3.1979,-0.3445 4.8174,-0.2715 0.5165,-0.073 1.34475,0.1544 1.57225,-0.4961 0.586,-1.8035 0.3735,-3.77265 1.042,-5.55565 0.461,-1.2545 1.6928,-2.23825 1.57035,-3.67675 -0.023,-1.4525 0.70965,-11.92635 0.47165,-13.54885 -0.4375,-0.8315 -1.58675,-0.53635 -2.34275,-0.54785 -1.532,0.3005 -3.3205,-0.0592 -4.584,1.04985 -1.0765,0.8435 -1.79165,2.4804 -3.43165,2.1709 -0.035,-1.0885 -0.0603,-2.17045 -0.049,-3.25295 0.522,-0.169 1.4119,0.006 1.6484,-0.63575 -0.0555,-0.9895 -0.1984,-1.9739 -0.21285,-2.9629 -0.61255,0.3535 -1.2635,0.6309 -1.917,0.8789 -0.321,-0.604 -0.6166,-1.2075 -0.9141,-1.8115 -4.151,1.549 -3.45635,4.31205 -5.81835,4.37305 -0.2975,-0.925 -0.42325,-1.93075 -0.98925,-2.73925 -1.0535,-0.032 -1.7362,0.97515 -2.4922,1.55565 -0.257,-0.706 -0.2889,-1.5208 -0.7734,-2.1133 -0.4115,-0.0815 -0.83445,-0.0815 -1.23145,0.005 -0.6155,0.753 -0.79895,1.7541 -1.33595,2.5596 -0.683,-0.61 -1.41235,-1.1878 -1.92285,-1.9463 -0.365,-1.908 0.37905,-3.8085 0.20705,-5.708 -0.671,-1.1325 -1.83,-1.8649 -2.542,-2.9619 -0.2805,-0.5955 -1.00115,-11.3202 -0.86915,-11.9932 0.9015,-0.9685 2.01615,-1.70415 3.09865,-2.45115 -0.32105,-1.4675 0.7991,-2.57025 1.3271,-3.82225 -1.631,-0.8315 -3.28295,-1.62755 -4.87595,-2.52055 -1.934,-0.935 -0.589,-7.03255 -2.3135,-11.18455 -1.036,-0.826 -2.4426,-0.98415 -3.6621,-1.41015 -18.3825,-4.288 -15.8264,0.0605 -20.8584,-22.27245 -0.993,-4.6805 -0.2862,0.4671 0.05,-8.9004 -0.0355,-0.502 -2.06095,-29.39085 -2.00095,-30.04885 0.992,-1.462 2.8189,-2.18885 3.6504,-3.77635 0.5835,-1.8265 -1.11515,-3.2655 -1.34865,-4.9785 -0.4,-1.9025 -0.16925,-3.8542 -0.46975,-5.7627 -0.522,-4.5275 1.12555,-6.4755 0.64555,-9.084 -0.0775,-0.5005 -5.85895,-63.54792 -5.71095,-66.21191 3.6615,-0.19301 4.9898,5.59643 9.7783,3.89843 4.7185,-1.2445 6.7394,-5.4704 9.1504,-9.6709 4.3355,-8.1525 3.2519,-12.71044 4.8379,-15.85644 2.5525,-5.2795 1.25405,-4.33877 1.66405,-9.07227 1.8205,-11.1345 -1.24855,-8.10407 -3.30955,-12.68457 -0.493,-1.0885 -0.5713,-2.30234 -1.0088,-3.40234 -0.2655,-0.703 -0.85505,-1.19852 -1.24905,-1.81152 -0.7165,-5.136 1.07965,-6.16486 2.26465,-11.36036 0.246,-1.5815 3.1358,-3.6947 1.3008,-4.4707 -0.744,-0.598 -1.83535,-0.77547 -2.40135,-1.54297 -0.5775,-2.4015 -0.31215,-5.01118 -1.43265,-7.28418 -1.119,-3.2255 -4.7226,-5.56341 -6.3496,-2.77441 -1.313,2.145 -2.06605,4.58937 -3.41405,6.71387 -1.459,0.1715 -4.8742,-2.98214 -5.5957,-4.30664 -5.596,-10.7925 -5.85725,-16.83565 -15.69923,-27.45215 -0.916,-1.0535 -2.53563,-1.05115 -3.41113,-2.13965 -0.858,-1.039 -1.65422,-2.18839 -2.82422,-2.90039 -0.893,0.111 -1.31615,1.27252 -2.26465,1.24902 -3.764,-3.3775 -6.52404,-10.32617 -6.68554,-10.82617 5.9025,-1.081 -0.32042,-5.73204 0.78808,-8.60254 2.9205,-7.65 -1.99728,-9.29121 -1.92577,-11.17871 0.37049,-0.531 1.0188,-0.74721 1.57031,-1.05371 -0.137,-1.7015 -0.82066,-3.33214 -0.66016,-5.05664 0.1255,-1.316 -0.16581,-2.60587 -0.32031,-3.90137 19.7255,-2.4655 17.0542,-1.54381 17.7207,-3.19531 -2.3345,0.0495 -4.64806,-0.31526 -6.97656,-0.23926 -16.7835,-0.114 -13.10134,0.9278 -15.83984,-2.9707 2.0605,-1.6975 9.68488,-5.56096 12.75488,-7.64746 0.009,-0.1665 0.0262,-0.49659 0.0352,-0.66309 -2.2675,0.1835 -4.07944,1.70733 -6.14844,2.48633 -1.112,0.414 -8.78701,2.9893 -10.04101,2.8623 -1.8555,-0.9895 -3.48117,-2.38104 -5.11817,-3.68554 -0.1215,-1.1575 1.96491,-7.90236 2.94141,-12.56836 -1.5015,0.674 -0.49002,0.77336 -7.04102,10.65136 -1.2215,1.4295 -1.27655,0.213 -4.45605,0 -2.928,-0.467 -0.74884,1.43203 -12.21484,-13.35546 -0.81401,-1.00401 -1.45577,-2.22407 -2.63477,-2.85157 -0.0215,2.3045 0.83303,1.86283 7.83203,15.61133 -5.4775,3.502 -4.79683,2.8402 -6.36133,2.2002 -0.501,-0.2495 -15.20401,-7.30961 -18.83301,-8.28711 0.54,1.2985 2.03379,1.60207 3.13379,2.26757 3.897,2.159 12.87483,7.93703 14.42383,9.18653 -0.6505,1.0155 -1.25452,2.06288 -1.68652,3.19238 -2.5425,-0.1665 -14.22357,0.91849 -15.55957,0.83399 -0.4725,-0.3325 -0.45758,-0.94834 -0.58008,-1.44434 -1.6765,-11.8575 -11.71587,-23.52815 -15.54687,-46.889651 -1.3325,-10.083 -8.90187,-12.78486 -7.65137,-18.06836 0.149,-1.071 1.46212,-1.42951 1.76562,-2.41601 0.3295,-1.1875 -1.10581,-1.93443 -0.94531,-3.10743 -0.122,-1.9245 4.11152,-1.40836 6.31152,-1.94336 1.4125,-0.1605 1.89615,-1.73353 2.51465,-2.79003 -0.5575,-2.028 -1.90479,-3.90015 -1.77929,-6.07715 0.7355,-0.7965 1.71531,-1.36932 2.25781,-2.34082 -1.129,-0.003 -2.22632,-0.25897 -3.34082,-0.35547 -0.1635,-0.5895 -0.31207,-1.18228 -0.43457,-1.78028 -0.9015,-0.0175 -1.80929,0.0813 -2.69629,-0.0527 -0.7995,-0.2595 -1.59338,-0.56244 -2.44238,-0.58594 0.312,0.823 0.40007,1.73078 0.0176,2.55078 -1.8725,-2.467 -2.12899,-0.77399 -1.45899,-6.72949 0.753,-1.354 2.08935,-2.32344 2.65235,-3.79394 2.1595,-7.0275 4.86634,-6.54401 6.08984,-10.89551 0.28688,-1.20375 1.1196,-4.2552 -0.28125,-4.17383 z M 335.32244,130.41 c 0.684,-0.004 15.50683,0.45166 15.50683,0.45116 0.9805,0.7935 1.0361,2.27117 1.5586,3.36817 -2.4165,0.9765 -9.47255,2.34818 -12.37305,2.15918 -1.8545,-2.891 -4.53938,-2.77252 -4.69238,-5.97851 z m 12.58008,7.06933 c 0.31698,0.009 0.63447,0.0365 0.9541,0.0908 1.29,0.213 2.60077,0.135 3.90527,0.167 -0.0585,0.72449 0.2191,5.84178 0.9541,9.42577 0.1285,0.94851 1.26303,1.61672 2.14453,1.19923 0.5255,-0.0615 1.3339,-0.78486 1.6084,0.0146 -0.2165,0.8125 -3.42057,7.84012 -4.16407,9.05762 -0.9805,-0.207 -2.2945,-0.0232 -2.8955,-0.99219 -1.506,-2.358 -3.73515,-4.12583 -5.38965,-6.36133 -0.677,-1.2285 0.50403,-2.72822 -0.41797,-3.88672 -0.992,-1.2665 -0.44045,-3.00949 -1.23145,-4.35449 -0.461,-0.8695 -1.27211,-1.46416 -1.87011,-2.22266 -0.2485,-0.479 -0.16318,-1.04509 -0.22168,-1.55859 2.24175,0.27037 4.40514,-0.63903 6.62402,-0.57911 z"
     style="stroke-width:0.5;fill:#cccccc" /></g>

</svg>
